<svg width="84" height="59" viewBox="0 0 84 59" fill="none" xmlns="http://www.w3.org/2000/svg">
<g filter="url(#filter0_d_60_59)">
<mask id="path-1-outside-1_60_59" maskUnits="userSpaceOnUse" x="31.3066" y="0.252441" width="49" height="44" fill="black">
<rect fill="white" x="31.3066" y="0.252441" width="49" height="44"/>
<path d="M47.0565 14.0187C46.8842 14.3595 47.0344 14.5506 47.5062 14.7891L49.459 15.7764C49.826 15.9619 49.9772 15.9232 50.1031 15.6742L52.1041 11.7162L52.1737 16.7539C52.2376 17.1482 52.3161 17.2208 52.6175 17.3732L55.1732 18.6652C55.4615 18.811 55.704 18.9172 55.7835 18.7599C55.8167 18.6944 55.8237 18.5827 55.7982 18.4053L55.2764 11.6909L59.6603 9.46421C59.8773 9.39293 59.9761 9.32769 60.0093 9.26216C60.0888 9.10489 59.9053 9.01213 59.499 8.80673L57.2841 7.68697C56.9958 7.5412 56.8775 7.54725 56.3251 7.72869L53.0516 9.84207L54.549 6.88015C54.7014 6.57872 54.7678 6.41482 54.3877 6.22267L52.3563 5.19567C51.8976 4.96377 51.6482 4.93639 51.4759 5.27715L49.9586 8.27838L49.7197 4.38929C49.5383 3.8368 49.473 3.738 49.1847 3.59223L46.9698 2.47247C46.5635 2.26707 46.3801 2.17431 46.3005 2.33158C46.2674 2.39711 46.2735 2.51536 46.3447 2.7324L47.1507 7.58289L41.4342 11.1434C41.2762 11.2281 41.1905 11.3 41.1574 11.3655C41.0779 11.5228 41.3072 11.6551 41.5955 11.8009L44.1511 13.0929C44.4526 13.2453 44.5576 13.2655 44.913 13.0832L49.0111 10.1525L47.0565 14.0187Z"/>
<path d="M65.8578 23.6391L69.0183 17.3877C69.1707 17.0862 69.2109 16.9091 68.8571 16.7302L66.6946 15.6369C66.4325 15.5044 66.1309 15.3849 65.874 15.5676L63.1776 17.874C63.1315 17.9001 63.0855 17.8933 63.0593 17.8801C63.02 17.8602 63.0004 17.8338 63.0007 17.7681L63.2661 14.2162C63.2478 13.8943 62.9988 13.7685 62.7498 13.6426L60.7184 12.6156C60.2596 12.3837 60.0102 12.3563 59.8379 12.697L56.7039 18.8961C56.4985 19.3024 56.9309 19.5539 57.1537 19.6665L58.7526 20.4749C59.2113 20.7068 59.284 20.5954 59.3967 20.3726L60.7417 17.7121C60.7616 17.6728 60.8404 17.6797 60.9059 17.7129C60.9452 17.7328 60.9648 17.7591 60.9646 17.7919L60.727 21.0287C60.6989 21.4424 60.6463 21.4487 61.0002 21.6276L61.1443 21.7005C61.4064 21.833 61.4132 21.7871 61.7164 21.5454L64.3267 19.4094C64.353 19.3898 64.4187 19.3901 64.4711 19.4166C64.5104 19.4365 64.53 19.4628 64.5035 19.5152L63.1651 22.1626C62.9928 22.5034 63.143 22.6945 63.6149 22.933L65.2138 23.7414C65.5807 23.9269 65.732 23.8882 65.8578 23.6391Z"/>
<path d="M74.2511 27.6685L77.246 21.7447C77.4183 21.404 77.4132 21.0558 76.9152 20.8041L75.159 19.9162C74.6741 19.6711 74.5017 20.0446 74.3294 20.3854L72.673 23.6619C72.5206 23.9633 72.2239 24.2247 71.8045 24.0127C71.3982 23.8073 71.4656 23.4135 71.6247 23.099L73.3474 19.6914C73.513 19.3638 73.3111 18.982 72.9835 18.8163L71.1487 17.8887C70.7817 17.7032 70.4653 17.9711 70.2797 18.338L68.1264 22.5974C67.2782 24.275 68.1531 25.4413 69.0574 25.8985C69.9748 26.3623 70.6253 26.3127 71.4142 26.1191C71.1094 26.722 71.4174 26.8941 71.7188 27.0465L73.5929 27.994C73.855 28.1265 74.1186 27.9307 74.2511 27.6685Z"/>
<path d="M41.0842 25.8985C41.4473 25.4732 39.4655 23.6321 39.1287 24.0378C38.8183 24.4239 38.3435 24.8749 37.8847 24.643C37.4129 24.4045 37.6196 23.7027 37.8052 23.3357L38.7593 21.4485C38.9382 21.0946 39.2556 20.5969 39.7406 20.842C40.2648 21.1071 40.2233 21.5798 40.1425 22.0326C40.082 22.3475 42.9921 22.1897 42.9289 21.6312C42.8027 20.4813 42.0968 19.6966 40.7076 18.9943C38.034 17.6426 36.4755 18.0888 35.0245 20.959C33.7059 23.5671 34.1328 25.0664 36.8981 26.4644C38.8377 27.4451 40.1203 27.0239 41.0842 25.8985Z"/>
<path d="M50.0304 29.7302C49.8118 30.1627 49.5277 30.5293 49.0821 30.304C48.6497 30.0853 48.7237 29.6785 48.9622 29.2067L50.0091 27.1359C50.188 26.7821 50.4793 26.2711 50.9642 26.5163C51.4884 26.7813 51.2562 27.3057 51.0707 27.6726L50.0304 29.7302ZM46.1953 25.2078L47.2223 23.1764C47.3681 22.8881 47.4149 22.6978 46.8513 22.4129L44.9772 21.4654C44.7151 21.3329 44.4846 21.4633 44.3521 21.7254L41.3241 27.7147C41.1519 28.0555 41.0587 28.3375 41.5567 28.5893L43.4177 29.5301C43.8633 29.7554 44.0221 29.5065 44.1943 29.1658L45.2147 27.1475L45.9748 27.5318C45.1702 29.7743 45.8413 30.9858 48.2265 32.1917C50.7691 33.4771 52.3879 32.7487 53.6005 30.3503C55.0383 27.5063 54.4082 25.9207 52.0361 24.7215C49.4936 23.4361 48.2041 23.9361 46.9555 25.5921L46.1953 25.2078Z"/>
<path d="M60.6062 37.1668L63.389 31.6623C63.5613 31.3216 63.7337 30.948 63.275 30.7161L61.5319 29.8349C61.1125 29.6228 60.8897 29.5102 60.5651 30.1524C60.4633 29.4098 60.0065 28.751 58.9842 28.2342C57.5164 27.4921 56.0822 28.0505 54.7636 30.6586C53.3126 33.5288 53.7986 35.0087 55.2009 35.7176C56.2232 36.2344 56.9781 36.3035 57.6696 35.8796L57.3516 36.5087C57.0733 37.0592 56.5078 37.2011 56.0753 36.9825C55.3807 36.6313 54.6477 36.0632 54.2158 35.7132C54.1569 35.667 54.0849 35.6142 54.0062 35.5744C53.7965 35.4684 53.5537 35.4279 53.4345 35.6638L52.7917 36.9351C52.6195 37.2758 52.7108 37.4207 52.9464 37.6057C53.2736 37.8698 53.7447 38.2725 55.4484 39.1339C57.1784 40.0085 58.9431 40.4564 60.6062 37.1668ZM58.3026 33.8465C58.117 34.2134 57.8586 34.7246 57.3344 34.4595C56.8495 34.2144 57.1145 33.6901 57.2934 33.3363L58.2475 31.4491C58.433 31.0821 58.8232 30.473 59.295 30.7116C59.7669 30.9501 59.4356 31.6054 59.2567 31.9592L58.3026 33.8465Z"/>
<path d="M69.0288 41.5895L72.0038 35.705C72.1496 35.4166 72.1702 35.2131 71.7377 34.9945L69.7587 33.994C69.4966 33.8615 69.233 34.0573 69.1005 34.3195L69.0541 34.4112C68.8867 33.6683 68.6789 33.1354 67.4862 32.5325C66.0446 31.8036 64.5778 32.2963 63.1268 35.1664C61.8082 37.7745 62.3006 39.3069 63.4277 39.8768C64.6465 40.493 65.5336 40.3984 66.1587 40.1384L65.9996 40.453C65.8207 40.8068 66.1023 40.9986 66.443 41.1708L68.1992 42.0587C68.6841 42.3038 68.8566 41.9302 69.0288 41.5895ZM66.838 38.0135C66.6591 38.3674 66.3278 39.0227 65.856 38.7842C65.3842 38.5456 65.6433 37.8703 65.8288 37.5034L66.7829 35.6161C66.9618 35.2623 67.2269 34.738 67.7118 34.9832C68.236 35.2482 67.9776 35.7593 67.7921 36.1263L66.838 38.0135Z"/>
</mask>
<path d="M47.0565 14.0187C46.8842 14.3595 47.0344 14.5506 47.5062 14.7891L49.459 15.7764C49.826 15.9619 49.9772 15.9232 50.1031 15.6742L52.1041 11.7162L52.1737 16.7539C52.2376 17.1482 52.3161 17.2208 52.6175 17.3732L55.1732 18.6652C55.4615 18.811 55.704 18.9172 55.7835 18.7599C55.8167 18.6944 55.8237 18.5827 55.7982 18.4053L55.2764 11.6909L59.6603 9.46421C59.8773 9.39293 59.9761 9.32769 60.0093 9.26216C60.0888 9.10489 59.9053 9.01213 59.499 8.80673L57.2841 7.68697C56.9958 7.5412 56.8775 7.54725 56.3251 7.72869L53.0516 9.84207L54.549 6.88015C54.7014 6.57872 54.7678 6.41482 54.3877 6.22267L52.3563 5.19567C51.8976 4.96377 51.6482 4.93639 51.4759 5.27715L49.9586 8.27838L49.7197 4.38929C49.5383 3.8368 49.473 3.738 49.1847 3.59223L46.9698 2.47247C46.5635 2.26707 46.3801 2.17431 46.3005 2.33158C46.2674 2.39711 46.2735 2.51536 46.3447 2.7324L47.1507 7.58289L41.4342 11.1434C41.2762 11.2281 41.1905 11.3 41.1574 11.3655C41.0779 11.5228 41.3072 11.6551 41.5955 11.8009L44.1511 13.0929C44.4526 13.2453 44.5576 13.2655 44.913 13.0832L49.0111 10.1525L47.0565 14.0187Z" fill="#F1A62D"/>
<path d="M65.8578 23.6391L69.0183 17.3877C69.1707 17.0862 69.2109 16.9091 68.8571 16.7302L66.6946 15.6369C66.4325 15.5044 66.1309 15.3849 65.874 15.5676L63.1776 17.874C63.1315 17.9001 63.0855 17.8933 63.0593 17.8801C63.02 17.8602 63.0004 17.8338 63.0007 17.7681L63.2661 14.2162C63.2478 13.8943 62.9988 13.7685 62.7498 13.6426L60.7184 12.6156C60.2596 12.3837 60.0102 12.3563 59.8379 12.697L56.7039 18.8961C56.4985 19.3024 56.9309 19.5539 57.1537 19.6665L58.7526 20.4749C59.2113 20.7068 59.284 20.5954 59.3967 20.3726L60.7417 17.7121C60.7616 17.6728 60.8404 17.6797 60.9059 17.7129C60.9452 17.7328 60.9648 17.7591 60.9646 17.7919L60.727 21.0287C60.6989 21.4424 60.6463 21.4487 61.0002 21.6276L61.1443 21.7005C61.4064 21.833 61.4132 21.7871 61.7164 21.5454L64.3267 19.4094C64.353 19.3898 64.4187 19.3901 64.4711 19.4166C64.5104 19.4365 64.53 19.4628 64.5035 19.5152L63.1651 22.1626C62.9928 22.5034 63.143 22.6945 63.6149 22.933L65.2138 23.7414C65.5807 23.9269 65.732 23.8882 65.8578 23.6391Z" fill="#F1A62D"/>
<path d="M74.2511 27.6685L77.246 21.7447C77.4183 21.404 77.4132 21.0558 76.9152 20.8041L75.159 19.9162C74.6741 19.6711 74.5017 20.0446 74.3294 20.3854L72.673 23.6619C72.5206 23.9633 72.2239 24.2247 71.8045 24.0127C71.3982 23.8073 71.4656 23.4135 71.6247 23.099L73.3474 19.6914C73.513 19.3638 73.3111 18.982 72.9835 18.8163L71.1487 17.8887C70.7817 17.7032 70.4653 17.9711 70.2797 18.338L68.1264 22.5974C67.2782 24.275 68.1531 25.4413 69.0574 25.8985C69.9748 26.3623 70.6253 26.3127 71.4142 26.1191C71.1094 26.722 71.4174 26.8941 71.7188 27.0465L73.5929 27.994C73.855 28.1265 74.1186 27.9307 74.2511 27.6685Z" fill="#F1A62D"/>
<path d="M41.0842 25.8985C41.4473 25.4732 39.4655 23.6321 39.1287 24.0378C38.8183 24.4239 38.3435 24.8749 37.8847 24.643C37.4129 24.4045 37.6196 23.7027 37.8052 23.3357L38.7593 21.4485C38.9382 21.0946 39.2556 20.5969 39.7406 20.842C40.2648 21.1071 40.2233 21.5798 40.1425 22.0326C40.082 22.3475 42.9921 22.1897 42.9289 21.6312C42.8027 20.4813 42.0968 19.6966 40.7076 18.9943C38.034 17.6426 36.4755 18.0888 35.0245 20.959C33.7059 23.5671 34.1328 25.0664 36.8981 26.4644C38.8377 27.4451 40.1203 27.0239 41.0842 25.8985Z" fill="#F1A62D"/>
<path d="M50.0304 29.7302C49.8118 30.1627 49.5277 30.5293 49.0821 30.304C48.6497 30.0853 48.7237 29.6785 48.9622 29.2067L50.0091 27.1359C50.188 26.7821 50.4793 26.2711 50.9642 26.5163C51.4884 26.7813 51.2562 27.3057 51.0707 27.6726L50.0304 29.7302ZM46.1953 25.2078L47.2223 23.1764C47.3681 22.8881 47.4149 22.6978 46.8513 22.4129L44.9772 21.4654C44.7151 21.3329 44.4846 21.4633 44.3521 21.7254L41.3241 27.7147C41.1519 28.0555 41.0587 28.3375 41.5567 28.5893L43.4177 29.5301C43.8633 29.7554 44.0221 29.5065 44.1943 29.1658L45.2147 27.1475L45.9748 27.5318C45.1702 29.7743 45.8413 30.9858 48.2265 32.1917C50.7691 33.4771 52.3879 32.7487 53.6005 30.3503C55.0383 27.5063 54.4082 25.9207 52.0361 24.7215C49.4936 23.4361 48.2041 23.9361 46.9555 25.5921L46.1953 25.2078Z" fill="#F1A62D"/>
<path d="M60.6062 37.1668L63.389 31.6623C63.5613 31.3216 63.7337 30.948 63.275 30.7161L61.5319 29.8349C61.1125 29.6228 60.8897 29.5102 60.5651 30.1524C60.4633 29.4098 60.0065 28.751 58.9842 28.2342C57.5164 27.4921 56.0822 28.0505 54.7636 30.6586C53.3126 33.5288 53.7986 35.0087 55.2009 35.7176C56.2232 36.2344 56.9781 36.3035 57.6696 35.8796L57.3516 36.5087C57.0733 37.0592 56.5078 37.2011 56.0753 36.9825C55.3807 36.6313 54.6477 36.0632 54.2158 35.7132C54.1569 35.667 54.0849 35.6142 54.0062 35.5744C53.7965 35.4684 53.5537 35.4279 53.4345 35.6638L52.7917 36.9351C52.6195 37.2758 52.7108 37.4207 52.9464 37.6057C53.2736 37.8698 53.7447 38.2725 55.4484 39.1339C57.1784 40.0085 58.9431 40.4564 60.6062 37.1668ZM58.3026 33.8465C58.117 34.2134 57.8586 34.7246 57.3344 34.4595C56.8495 34.2144 57.1145 33.6901 57.2934 33.3363L58.2475 31.4491C58.433 31.0821 58.8232 30.473 59.295 30.7116C59.7669 30.9501 59.4356 31.6054 59.2567 31.9592L58.3026 33.8465Z" fill="#F1A62D"/>
<path d="M69.0288 41.5895L72.0038 35.705C72.1496 35.4166 72.1702 35.2131 71.7377 34.9945L69.7587 33.994C69.4966 33.8615 69.233 34.0573 69.1005 34.3195L69.0541 34.4112C68.8867 33.6683 68.6789 33.1354 67.4862 32.5325C66.0446 31.8036 64.5778 32.2963 63.1268 35.1664C61.8082 37.7745 62.3006 39.3069 63.4277 39.8768C64.6465 40.493 65.5336 40.3984 66.1587 40.1384L65.9996 40.453C65.8207 40.8068 66.1023 40.9986 66.443 41.1708L68.1992 42.0587C68.6841 42.3038 68.8566 41.9302 69.0288 41.5895ZM66.838 38.0135C66.6591 38.3674 66.3278 39.0227 65.856 38.7842C65.3842 38.5456 65.6433 37.8703 65.8288 37.5034L66.7829 35.6161C66.9618 35.2623 67.2269 34.738 67.7118 34.9832C68.236 35.2482 67.9776 35.7593 67.7921 36.1263L66.838 38.0135Z" fill="#F1A62D"/>
<path d="M47.0565 14.0187C46.8842 14.3595 47.0344 14.5506 47.5062 14.7891L49.459 15.7764C49.826 15.9619 49.9772 15.9232 50.1031 15.6742L52.1041 11.7162L52.1737 16.7539C52.2376 17.1482 52.3161 17.2208 52.6175 17.3732L55.1732 18.6652C55.4615 18.811 55.704 18.9172 55.7835 18.7599C55.8167 18.6944 55.8237 18.5827 55.7982 18.4053L55.2764 11.6909L59.6603 9.46421C59.8773 9.39293 59.9761 9.32769 60.0093 9.26216C60.0888 9.10489 59.9053 9.01213 59.499 8.80673L57.2841 7.68697C56.9958 7.5412 56.8775 7.54725 56.3251 7.72869L53.0516 9.84207L54.549 6.88015C54.7014 6.57872 54.7678 6.41482 54.3877 6.22267L52.3563 5.19567C51.8976 4.96377 51.6482 4.93639 51.4759 5.27715L49.9586 8.27838L49.7197 4.38929C49.5383 3.8368 49.473 3.738 49.1847 3.59223L46.9698 2.47247C46.5635 2.26707 46.3801 2.17431 46.3005 2.33158C46.2674 2.39711 46.2735 2.51536 46.3447 2.7324L47.1507 7.58289L41.4342 11.1434C41.2762 11.2281 41.1905 11.3 41.1574 11.3655C41.0779 11.5228 41.3072 11.6551 41.5955 11.8009L44.1511 13.0929C44.4526 13.2453 44.5576 13.2655 44.913 13.0832L49.0111 10.1525L47.0565 14.0187Z" stroke="white" stroke-width="4" mask="url(#path-1-outside-1_60_59)"/>
<path d="M65.8578 23.6391L69.0183 17.3877C69.1707 17.0862 69.2109 16.9091 68.8571 16.7302L66.6946 15.6369C66.4325 15.5044 66.1309 15.3849 65.874 15.5676L63.1776 17.874C63.1315 17.9001 63.0855 17.8933 63.0593 17.8801C63.02 17.8602 63.0004 17.8338 63.0007 17.7681L63.2661 14.2162C63.2478 13.8943 62.9988 13.7685 62.7498 13.6426L60.7184 12.6156C60.2596 12.3837 60.0102 12.3563 59.8379 12.697L56.7039 18.8961C56.4985 19.3024 56.9309 19.5539 57.1537 19.6665L58.7526 20.4749C59.2113 20.7068 59.284 20.5954 59.3967 20.3726L60.7417 17.7121C60.7616 17.6728 60.8404 17.6797 60.9059 17.7129C60.9452 17.7328 60.9648 17.7591 60.9646 17.7919L60.727 21.0287C60.6989 21.4424 60.6463 21.4487 61.0002 21.6276L61.1443 21.7005C61.4064 21.833 61.4132 21.7871 61.7164 21.5454L64.3267 19.4094C64.353 19.3898 64.4187 19.3901 64.4711 19.4166C64.5104 19.4365 64.53 19.4628 64.5035 19.5152L63.1651 22.1626C62.9928 22.5034 63.143 22.6945 63.6149 22.933L65.2138 23.7414C65.5807 23.9269 65.732 23.8882 65.8578 23.6391Z" stroke="white" stroke-width="4" mask="url(#path-1-outside-1_60_59)"/>
<path d="M74.2511 27.6685L77.246 21.7447C77.4183 21.404 77.4132 21.0558 76.9152 20.8041L75.159 19.9162C74.6741 19.6711 74.5017 20.0446 74.3294 20.3854L72.673 23.6619C72.5206 23.9633 72.2239 24.2247 71.8045 24.0127C71.3982 23.8073 71.4656 23.4135 71.6247 23.099L73.3474 19.6914C73.513 19.3638 73.3111 18.982 72.9835 18.8163L71.1487 17.8887C70.7817 17.7032 70.4653 17.9711 70.2797 18.338L68.1264 22.5974C67.2782 24.275 68.1531 25.4413 69.0574 25.8985C69.9748 26.3623 70.6253 26.3127 71.4142 26.1191C71.1094 26.722 71.4174 26.8941 71.7188 27.0465L73.5929 27.994C73.855 28.1265 74.1186 27.9307 74.2511 27.6685Z" stroke="white" stroke-width="4" mask="url(#path-1-outside-1_60_59)"/>
<path d="M41.0842 25.8985C41.4473 25.4732 39.4655 23.6321 39.1287 24.0378C38.8183 24.4239 38.3435 24.8749 37.8847 24.643C37.4129 24.4045 37.6196 23.7027 37.8052 23.3357L38.7593 21.4485C38.9382 21.0946 39.2556 20.5969 39.7406 20.842C40.2648 21.1071 40.2233 21.5798 40.1425 22.0326C40.082 22.3475 42.9921 22.1897 42.9289 21.6312C42.8027 20.4813 42.0968 19.6966 40.7076 18.9943C38.034 17.6426 36.4755 18.0888 35.0245 20.959C33.7059 23.5671 34.1328 25.0664 36.8981 26.4644C38.8377 27.4451 40.1203 27.0239 41.0842 25.8985Z" stroke="white" stroke-width="4" mask="url(#path-1-outside-1_60_59)"/>
<path d="M50.0304 29.7302C49.8118 30.1627 49.5277 30.5293 49.0821 30.304C48.6497 30.0853 48.7237 29.6785 48.9622 29.2067L50.0091 27.1359C50.188 26.7821 50.4793 26.2711 50.9642 26.5163C51.4884 26.7813 51.2562 27.3057 51.0707 27.6726L50.0304 29.7302ZM46.1953 25.2078L47.2223 23.1764C47.3681 22.8881 47.4149 22.6978 46.8513 22.4129L44.9772 21.4654C44.7151 21.3329 44.4846 21.4633 44.3521 21.7254L41.3241 27.7147C41.1519 28.0555 41.0587 28.3375 41.5567 28.5893L43.4177 29.5301C43.8633 29.7554 44.0221 29.5065 44.1943 29.1658L45.2147 27.1475L45.9748 27.5318C45.1702 29.7743 45.8413 30.9858 48.2265 32.1917C50.7691 33.4771 52.3879 32.7487 53.6005 30.3503C55.0383 27.5063 54.4082 25.9207 52.0361 24.7215C49.4936 23.4361 48.2041 23.9361 46.9555 25.5921L46.1953 25.2078Z" stroke="white" stroke-width="4" mask="url(#path-1-outside-1_60_59)"/>
<path d="M60.6062 37.1668L63.389 31.6623C63.5613 31.3216 63.7337 30.948 63.275 30.7161L61.5319 29.8349C61.1125 29.6228 60.8897 29.5102 60.5651 30.1524C60.4633 29.4098 60.0065 28.751 58.9842 28.2342C57.5164 27.4921 56.0822 28.0505 54.7636 30.6586C53.3126 33.5288 53.7986 35.0087 55.2009 35.7176C56.2232 36.2344 56.9781 36.3035 57.6696 35.8796L57.3516 36.5087C57.0733 37.0592 56.5078 37.2011 56.0753 36.9825C55.3807 36.6313 54.6477 36.0632 54.2158 35.7132C54.1569 35.667 54.0849 35.6142 54.0062 35.5744C53.7965 35.4684 53.5537 35.4279 53.4345 35.6638L52.7917 36.9351C52.6195 37.2758 52.7108 37.4207 52.9464 37.6057C53.2736 37.8698 53.7447 38.2725 55.4484 39.1339C57.1784 40.0085 58.9431 40.4564 60.6062 37.1668ZM58.3026 33.8465C58.117 34.2134 57.8586 34.7246 57.3344 34.4595C56.8495 34.2144 57.1145 33.6901 57.2934 33.3363L58.2475 31.4491C58.433 31.0821 58.8232 30.473 59.295 30.7116C59.7669 30.9501 59.4356 31.6054 59.2567 31.9592L58.3026 33.8465Z" stroke="white" stroke-width="4" mask="url(#path-1-outside-1_60_59)"/>
<path d="M69.0288 41.5895L72.0038 35.705C72.1496 35.4166 72.1702 35.2131 71.7377 34.9945L69.7587 33.994C69.4966 33.8615 69.233 34.0573 69.1005 34.3195L69.0541 34.4112C68.8867 33.6683 68.6789 33.1354 67.4862 32.5325C66.0446 31.8036 64.5778 32.2963 63.1268 35.1664C61.8082 37.7745 62.3006 39.3069 63.4277 39.8768C64.6465 40.493 65.5336 40.3984 66.1587 40.1384L65.9996 40.453C65.8207 40.8068 66.1023 40.9986 66.443 41.1708L68.1992 42.0587C68.6841 42.3038 68.8566 41.9302 69.0288 41.5895ZM66.838 38.0135C66.6591 38.3674 66.3278 39.0227 65.856 38.7842C65.3842 38.5456 65.6433 37.8703 65.8288 37.5034L66.7829 35.6161C66.9618 35.2623 67.2269 34.738 67.7118 34.9832C68.236 35.2482 67.9776 35.7593 67.7921 36.1263L66.838 38.0135Z" stroke="white" stroke-width="4" mask="url(#path-1-outside-1_60_59)"/>
</g>
<path fill-rule="evenodd" clip-rule="evenodd" d="M1.34383 42.8933C0.721944 41.9787 0.95923 40.7332 1.87382 40.1113L16.7779 29.9771C17.6925 29.3552 18.9381 29.5925 19.5599 30.5071C20.1818 31.4217 19.9445 32.6673 19.0299 33.2891L8.25528 40.6155C21.3173 42.4714 30.3128 40.9603 37.7866 37.2984C38.7798 36.8118 39.9794 37.2224 40.466 38.2156C40.9526 39.2088 40.542 40.4084 39.5488 40.895C31.1014 45.0339 21.1503 46.5483 7.2956 44.5235L14.79 55.5454C15.4119 56.4599 15.1746 57.7055 14.26 58.3274C13.3454 58.9493 12.0999 58.712 11.478 57.7974L1.34383 42.8933Z" fill="#EBA92D"/>
<defs>
<filter id="filter0_d_60_59" x="28.3059" y="0.252441" width="55.043" height="51.8853" filterUnits="userSpaceOnUse" color-interpolation-filters="sRGB">
<feFlood flood-opacity="0" result="BackgroundImageFix"/>
<feColorMatrix in="SourceAlpha" type="matrix" values="0 0 0 0 0 0 0 0 0 0 0 0 0 0 0 0 0 0 127 0" result="hardAlpha"/>
<feOffset dy="4"/>
<feGaussianBlur stdDeviation="2"/>
<feComposite in2="hardAlpha" operator="out"/>
<feColorMatrix type="matrix" values="0 0 0 0 0 0 0 0 0 0 0 0 0 0 0 0 0 0 0.25 0"/>
<feBlend mode="normal" in2="BackgroundImageFix" result="effect1_dropShadow_60_59"/>
<feBlend mode="normal" in="SourceGraphic" in2="effect1_dropShadow_60_59" result="shape"/>
</filter>
</defs>
</svg>
