<svg width="56" height="53" viewBox="0 0 56 53" fill="none" xmlns="http://www.w3.org/2000/svg">
<g filter="url(#filter0_d_60_52)">
<mask id="path-1-outside-1_60_52" maskUnits="userSpaceOnUse" x="3.31396" y="0.251953" width="49" height="44" fill="black">
<rect fill="white" x="3.31396" y="0.251953" width="49" height="44"/>
<path d="M19.0565 14.0186L21.0111 10.1524L16.9131 13.0831C16.7376 13.1699 16.606 13.2131 16.5184 13.2127C16.4309 13.2123 16.3085 13.1723 16.1512 13.0928L13.5956 11.8008C13.2461 11.6241 13.1 11.479 13.1575 11.3654C13.1928 11.2955 13.2851 11.2215 13.4343 11.1433L19.1508 7.58276L18.3448 2.73228C18.28 2.53496 18.2653 2.40136 18.3006 2.33146C18.3359 2.26156 18.3973 2.23775 18.4848 2.26003C18.5723 2.28231 18.734 2.35308 18.9699 2.47235L21.1848 3.59211C21.3245 3.66278 21.4249 3.74642 21.4857 3.84301C21.551 3.93087 21.629 4.11292 21.7198 4.38916L21.9586 8.27826L23.4759 5.27702C23.5599 5.11101 23.6631 5.02609 23.7858 5.02226C23.9215 5.0141 24.1117 5.07187 24.3564 5.19555L26.3878 6.22255C26.5625 6.31089 26.6541 6.40105 26.6624 6.49304C26.6752 6.57629 26.6374 6.70528 26.549 6.88003L25.0516 9.84195L28.3251 7.72856C28.6013 7.63784 28.7942 7.59273 28.9037 7.59321C29.0175 7.58496 29.1444 7.61617 29.2842 7.68685L31.499 8.80661C31.735 8.92587 31.8878 9.01412 31.9576 9.07135C32.0274 9.12858 32.0446 9.19214 32.0093 9.26204C31.974 9.33194 31.8576 9.39928 31.6603 9.46409L27.2764 11.6908L27.7983 18.4052C27.8238 18.5717 27.8189 18.6899 27.7836 18.7598C27.7261 18.8734 27.5227 18.8418 27.1732 18.6651L24.6176 17.3731C24.4603 17.2936 24.3555 17.2187 24.3033 17.1484C24.2511 17.0781 24.2079 16.9466 24.1737 16.7538L24.1041 11.7161L22.1031 15.674C22.0413 15.7964 21.9622 15.8661 21.8658 15.8832C21.7781 15.9047 21.6425 15.869 21.4591 15.7763L19.5063 14.789C19.2616 14.6653 19.1024 14.5464 19.0284 14.4323C18.9632 14.3225 18.9726 14.1846 19.0565 14.0186Z"/>
<path d="M37.8579 23.639C37.7961 23.7613 37.7169 23.831 37.6205 23.8481C37.5329 23.8696 37.3973 23.834 37.2138 23.7412L35.6149 22.9329C35.3703 22.8092 35.211 22.6903 35.137 22.5761C35.0719 22.4664 35.0812 22.3285 35.1651 22.1625L36.5036 19.5151C36.5256 19.4714 36.5148 19.4385 36.4712 19.4165C36.41 19.3855 36.3618 19.3831 36.3267 19.4092L33.7164 21.5453C33.6945 21.5671 33.6659 21.591 33.6307 21.6171C33.4858 21.7303 33.3783 21.7802 33.3083 21.7668C33.2689 21.7578 33.2143 21.7357 33.1444 21.7004L33.0002 21.6275C32.9565 21.6054 32.9216 21.5877 32.8954 21.5745C32.8692 21.5612 32.8451 21.5436 32.8234 21.5216C32.7971 21.5084 32.7753 21.4973 32.7578 21.4885C32.7535 21.4753 32.7448 21.46 32.7318 21.4424C32.7231 21.4161 32.7144 21.4007 32.7057 21.3963C32.7101 21.3876 32.7102 21.3657 32.706 21.3306C32.7018 21.2956 32.6997 21.2671 32.6998 21.2452C32.7086 21.2277 32.7131 21.1971 32.7133 21.1533C32.718 21.1008 32.7225 21.0592 32.727 21.0286L32.9647 17.7918C32.9692 17.7612 32.9496 17.7348 32.9059 17.7128C32.8186 17.6686 32.7638 17.6683 32.7417 17.712L31.3967 20.3725C31.3525 20.4599 31.3107 20.521 31.2711 20.5558C31.2447 20.5864 31.1877 20.6014 31.1002 20.6011C31.017 20.5919 30.9012 20.5498 30.7526 20.4747L29.1537 19.6664C28.7081 19.4411 28.5582 19.1843 28.704 18.896L31.838 12.6969C31.9219 12.5309 32.0252 12.446 32.1478 12.4422C32.2835 12.434 32.4738 12.4918 32.7184 12.6154L34.7498 13.6424C35.0818 13.8103 35.2539 14.0015 35.2661 14.2161L35.0008 17.768C34.9962 17.8205 35.0157 17.8578 35.0594 17.8799C35.0943 17.8976 35.1337 17.8956 35.1776 17.8739L37.874 15.5675C38.0629 15.4326 38.3364 15.4557 38.6947 15.6368L40.8571 16.7301C41.0231 16.814 41.1103 16.9019 41.1187 16.9939C41.1357 17.0903 41.1023 17.2215 41.0184 17.3875L37.8579 23.639Z"/>
<path d="M46.2512 27.6684C46.1805 27.8082 46.0837 27.9129 45.9608 27.9824C45.8379 28.0519 45.7153 28.0557 45.593 27.9939L43.7188 27.0464C43.6227 26.9978 43.5463 26.9537 43.4896 26.914C43.4416 26.8788 43.3914 26.826 43.3392 26.7557C43.287 26.6854 43.2655 26.5978 43.2747 26.4927C43.2971 26.3834 43.3436 26.2588 43.4143 26.119C42.976 26.2265 42.5795 26.2729 42.2249 26.2582C41.8747 26.2348 41.4856 26.1148 41.0575 25.8984C40.5245 25.6289 40.1367 25.2025 39.8941 24.6191C39.6603 24.0401 39.7377 23.3662 40.1264 22.5973L42.2798 18.3379C42.5183 17.8661 42.8079 17.7163 43.1487 17.8886L44.9835 18.8162C45.1495 18.9001 45.2716 19.0276 45.3496 19.1987C45.4277 19.3699 45.4269 19.534 45.3474 19.6913L43.6247 23.0988C43.4039 23.5357 43.4638 23.8403 43.8046 24.0125C44.1715 24.198 44.461 24.0811 44.673 23.6617L46.3295 20.3853C46.3913 20.2629 46.4355 20.1756 46.462 20.1232C46.4972 20.0751 46.5501 20.0141 46.6204 19.94C46.6908 19.8658 46.7698 19.829 46.8574 19.8294C46.9449 19.8298 47.0455 19.8587 47.1591 19.9161L48.9153 20.8039C49.3434 21.0204 49.4536 21.3339 49.246 21.7446L46.2512 27.6684Z"/>
<path d="M13.0842 25.8984C12.0147 27.1459 10.6194 27.3345 8.89813 26.4643C7.52639 25.7708 6.70443 25.0097 6.43227 24.181C6.16011 23.3522 6.35753 22.2782 7.02452 20.9589C7.74453 19.5347 8.53205 18.6822 9.38708 18.4014C10.2465 18.1119 11.3534 18.3095 12.7077 18.9941C13.4154 19.3519 13.9435 19.7396 14.2919 20.1571C14.6534 20.5702 14.8658 21.0616 14.929 21.631C14.9501 21.8063 14.7196 21.9475 14.2375 22.0549C13.7685 22.1579 13.2955 22.2039 12.8183 22.1931C12.3498 22.1866 12.1245 22.1331 12.1425 22.0324C12.1696 21.8487 12.1856 21.6977 12.1905 21.5795C12.1998 21.4525 12.1676 21.3211 12.0937 21.185C12.0243 21.0402 11.9066 20.9258 11.7406 20.8419C11.3824 20.6608 11.0553 20.8629 10.7593 21.4483L9.80521 23.3356C9.68153 23.5802 9.60816 23.8338 9.58511 24.0965C9.5752 24.3547 9.6751 24.5369 9.88479 24.6429C10.243 24.824 10.6577 24.6222 11.1288 24.0376C11.1904 23.9591 11.3108 23.9596 11.49 24.0392C11.6735 24.1101 11.8657 24.2292 12.0663 24.3964C12.2757 24.5681 12.4698 24.7485 12.6485 24.9376C12.8359 25.1311 12.9708 25.3199 13.0531 25.5042C13.1487 25.6841 13.159 25.8155 13.0842 25.8984Z"/>
<path d="M22.0305 29.7301L23.0707 27.6725C23.3667 27.0871 23.3312 26.7016 22.9642 26.5161C22.6235 26.3439 22.3051 26.5504 22.0092 27.1358L20.9623 29.2065C20.684 29.757 20.724 30.1228 21.0822 30.3039C21.4317 30.4805 21.7478 30.2893 22.0305 29.7301ZM18.1954 25.2077L18.9555 25.592C19.6161 24.7192 20.3212 24.2035 21.0706 24.0449C21.8244 23.8774 22.8129 24.1029 24.0361 24.7214C25.2506 25.3353 25.9873 26.0808 26.2461 26.9576C26.518 27.8301 26.3028 28.961 25.6005 30.3502C24.9821 31.5734 24.2409 32.3451 23.3769 32.6653C22.5261 32.9811 21.476 32.8232 20.2266 32.1915C19.0209 31.582 18.2422 30.9305 17.8906 30.2372C17.5522 29.5395 17.5803 28.6377 17.9749 27.5317L17.2147 27.1474L16.1944 29.1657C16.1237 29.3055 16.0619 29.4059 16.0091 29.467C15.9651 29.5324 15.8882 29.5759 15.7787 29.5973C15.6779 29.6231 15.5576 29.6007 15.4178 29.53L13.5567 28.5891C13.3296 28.4743 13.2053 28.3512 13.184 28.2197C13.1759 28.0839 13.2226 27.9156 13.3242 27.7146L16.3522 21.7253C16.5068 21.4194 16.7151 21.3328 16.9773 21.4653L18.8514 22.4128C19.1135 22.5453 19.2618 22.6642 19.2964 22.7694C19.331 22.8747 19.3063 23.0103 19.2224 23.1763L18.1954 25.2077Z"/>
<path d="M32.6062 37.1667C32.2838 37.8045 31.9422 38.3174 31.5814 38.7055C31.2294 39.098 30.8932 39.3723 30.5729 39.5285C30.2569 39.6979 29.9063 39.773 29.5211 39.7537C29.1402 39.7477 28.7968 39.6892 28.4908 39.5784C28.1891 39.4808 27.8417 39.3325 27.4485 39.1338C26.3651 38.586 25.5311 38.0766 24.9464 37.6055C24.8199 37.5086 24.7437 37.4098 24.7179 37.309C24.6876 37.2169 24.7123 37.0922 24.7918 36.9349L25.4345 35.6637C25.5361 35.4627 25.7267 35.4329 26.0063 35.5743C26.0674 35.6052 26.1373 35.6515 26.2158 35.7131C26.94 36.2987 27.5599 36.7217 28.0754 36.9824C28.3026 37.0972 28.5367 37.1114 28.7779 37.0249C29.0279 36.9428 29.2191 36.7707 29.3516 36.5086L29.6697 35.8795C29.0199 36.2751 28.197 36.2211 27.2009 35.7175C25.6108 34.9136 25.465 33.2272 26.7637 30.6585C27.9872 28.2383 29.3941 27.4301 30.9843 28.2341C31.9279 28.7111 32.4548 29.3505 32.5651 30.1523C32.7153 29.8552 32.8495 29.6982 32.9678 29.6812C33.0993 29.6599 33.2873 29.7111 33.532 29.8347L35.2751 30.716C35.4148 30.7866 35.4998 30.879 35.53 30.9929C35.5688 31.1113 35.5706 31.2164 35.5351 31.3082C35.5128 31.3957 35.4642 31.5137 35.3891 31.6622L32.6062 37.1667ZM30.3026 33.8464L31.2567 31.9591C31.5968 31.2863 31.6096 30.8705 31.2951 30.7114C30.9369 30.5303 30.5877 30.7762 30.2476 31.4489L29.2935 33.3362C29.2095 33.5022 29.1454 33.6398 29.1012 33.7491C29.0613 33.8496 29.052 33.9765 29.0732 34.1299C29.0988 34.2745 29.1859 34.3843 29.3344 34.4594C29.4568 34.5213 29.5705 34.5458 29.6756 34.5332C29.7808 34.5205 29.8729 34.4684 29.9522 34.3768C30.0314 34.2852 30.093 34.2066 30.1371 34.1412C30.1812 34.0757 30.2363 33.9774 30.3026 33.8464Z"/>
<path d="M41.0289 41.5894C40.967 41.7117 40.9185 41.7969 40.8833 41.8449C40.8568 41.8973 40.8083 41.9606 40.7379 42.0347C40.6675 42.1088 40.5886 42.1457 40.501 42.1453C40.4134 42.1449 40.3129 42.116 40.1993 42.0586L38.4431 41.1707C38.015 40.9543 37.8672 40.715 37.9997 40.4529L38.1587 40.1383C37.3516 40.4763 36.4412 40.389 35.4277 39.8766C34.8074 39.563 34.4464 39.0075 34.3449 38.2102C34.2478 37.4042 34.5084 36.3895 35.1268 35.1663C36.4255 32.5976 37.8786 31.7196 39.4863 32.5323C40.0367 32.8106 40.4077 33.0859 40.5991 33.3582C40.8037 33.6262 40.9554 33.9772 41.0542 34.4111L41.1005 34.3193C41.1712 34.1795 41.268 34.0749 41.3909 34.0054C41.5138 33.9359 41.6364 33.932 41.7588 33.9939L43.7377 34.9944C43.9387 35.096 44.0499 35.2015 44.0713 35.3111C44.1058 35.4163 44.0834 35.5476 44.0039 35.7048L41.0289 41.5894ZM38.838 38.0134L39.7921 36.1262C39.8584 35.9951 39.9048 35.8924 39.9314 35.8181C39.958 35.7438 39.9847 35.6476 40.0115 35.5295C40.0383 35.4114 40.0256 35.3063 39.9735 35.2141C39.9214 35.1219 39.8342 35.0449 39.7118 34.9831C39.5633 34.908 39.421 34.9073 39.2849 34.9812C39.1533 35.0463 39.0566 35.129 38.9949 35.2294C38.9375 35.3211 38.8669 35.45 38.783 35.616L37.8289 37.5032C37.4888 38.176 37.4978 38.6029 37.856 38.784C38.1706 38.9431 38.4979 38.6862 38.838 38.0134Z"/>
</mask>
<path d="M19.0565 14.0186L21.0111 10.1524L16.9131 13.0831C16.7376 13.1699 16.606 13.2131 16.5184 13.2127C16.4309 13.2123 16.3085 13.1723 16.1512 13.0928L13.5956 11.8008C13.2461 11.6241 13.1 11.479 13.1575 11.3654C13.1928 11.2955 13.2851 11.2215 13.4343 11.1433L19.1508 7.58276L18.3448 2.73228C18.28 2.53496 18.2653 2.40136 18.3006 2.33146C18.3359 2.26156 18.3973 2.23775 18.4848 2.26003C18.5723 2.28231 18.734 2.35308 18.9699 2.47235L21.1848 3.59211C21.3245 3.66278 21.4249 3.74642 21.4857 3.84301C21.551 3.93087 21.629 4.11292 21.7198 4.38916L21.9586 8.27826L23.4759 5.27702C23.5599 5.11101 23.6631 5.02609 23.7858 5.02226C23.9215 5.0141 24.1117 5.07187 24.3564 5.19555L26.3878 6.22255C26.5625 6.31089 26.6541 6.40105 26.6624 6.49304C26.6752 6.57629 26.6374 6.70528 26.549 6.88003L25.0516 9.84195L28.3251 7.72856C28.6013 7.63784 28.7942 7.59273 28.9037 7.59321C29.0175 7.58496 29.1444 7.61617 29.2842 7.68685L31.499 8.80661C31.735 8.92587 31.8878 9.01412 31.9576 9.07135C32.0274 9.12858 32.0446 9.19214 32.0093 9.26204C31.974 9.33194 31.8576 9.39928 31.6603 9.46409L27.2764 11.6908L27.7983 18.4052C27.8238 18.5717 27.8189 18.6899 27.7836 18.7598C27.7261 18.8734 27.5227 18.8418 27.1732 18.6651L24.6176 17.3731C24.4603 17.2936 24.3555 17.2187 24.3033 17.1484C24.2511 17.0781 24.2079 16.9466 24.1737 16.7538L24.1041 11.7161L22.1031 15.674C22.0413 15.7964 21.9622 15.8661 21.8658 15.8832C21.7781 15.9047 21.6425 15.869 21.4591 15.7763L19.5063 14.789C19.2616 14.6653 19.1024 14.5464 19.0284 14.4323C18.9632 14.3225 18.9726 14.1846 19.0565 14.0186Z" fill="#F1A62D"/>
<path d="M37.8579 23.639C37.7961 23.7613 37.7169 23.831 37.6205 23.8481C37.5329 23.8696 37.3973 23.834 37.2138 23.7412L35.6149 22.9329C35.3703 22.8092 35.211 22.6903 35.137 22.5761C35.0719 22.4664 35.0812 22.3285 35.1651 22.1625L36.5036 19.5151C36.5256 19.4714 36.5148 19.4385 36.4712 19.4165C36.41 19.3855 36.3618 19.3831 36.3267 19.4092L33.7164 21.5453C33.6945 21.5671 33.6659 21.591 33.6307 21.6171C33.4858 21.7303 33.3783 21.7802 33.3083 21.7668C33.2689 21.7578 33.2143 21.7357 33.1444 21.7004L33.0002 21.6275C32.9565 21.6054 32.9216 21.5877 32.8954 21.5745C32.8692 21.5612 32.8451 21.5436 32.8234 21.5216C32.7971 21.5084 32.7753 21.4973 32.7578 21.4885C32.7535 21.4753 32.7448 21.46 32.7318 21.4424C32.7231 21.4161 32.7144 21.4007 32.7057 21.3963C32.7101 21.3876 32.7102 21.3657 32.706 21.3306C32.7018 21.2956 32.6997 21.2671 32.6998 21.2452C32.7086 21.2277 32.7131 21.1971 32.7133 21.1533C32.718 21.1008 32.7225 21.0592 32.727 21.0286L32.9647 17.7918C32.9692 17.7612 32.9496 17.7348 32.9059 17.7128C32.8186 17.6686 32.7638 17.6683 32.7417 17.712L31.3967 20.3725C31.3525 20.4599 31.3107 20.521 31.2711 20.5558C31.2447 20.5864 31.1877 20.6014 31.1002 20.6011C31.017 20.5919 30.9012 20.5498 30.7526 20.4747L29.1537 19.6664C28.7081 19.4411 28.5582 19.1843 28.704 18.896L31.838 12.6969C31.9219 12.5309 32.0252 12.446 32.1478 12.4422C32.2835 12.434 32.4738 12.4918 32.7184 12.6154L34.7498 13.6424C35.0818 13.8103 35.2539 14.0015 35.2661 14.2161L35.0008 17.768C34.9962 17.8205 35.0157 17.8578 35.0594 17.8799C35.0943 17.8976 35.1337 17.8956 35.1776 17.8739L37.874 15.5675C38.0629 15.4326 38.3364 15.4557 38.6947 15.6368L40.8571 16.7301C41.0231 16.814 41.1103 16.9019 41.1187 16.9939C41.1357 17.0903 41.1023 17.2215 41.0184 17.3875L37.8579 23.639Z" fill="#F1A62D"/>
<path d="M46.2512 27.6684C46.1805 27.8082 46.0837 27.9129 45.9608 27.9824C45.8379 28.0519 45.7153 28.0557 45.593 27.9939L43.7188 27.0464C43.6227 26.9978 43.5463 26.9537 43.4896 26.914C43.4416 26.8788 43.3914 26.826 43.3392 26.7557C43.287 26.6854 43.2655 26.5978 43.2747 26.4927C43.2971 26.3834 43.3436 26.2588 43.4143 26.119C42.976 26.2265 42.5795 26.2729 42.2249 26.2582C41.8747 26.2348 41.4856 26.1148 41.0575 25.8984C40.5245 25.6289 40.1367 25.2025 39.8941 24.6191C39.6603 24.0401 39.7377 23.3662 40.1264 22.5973L42.2798 18.3379C42.5183 17.8661 42.8079 17.7163 43.1487 17.8886L44.9835 18.8162C45.1495 18.9001 45.2716 19.0276 45.3496 19.1987C45.4277 19.3699 45.4269 19.534 45.3474 19.6913L43.6247 23.0988C43.4039 23.5357 43.4638 23.8403 43.8046 24.0125C44.1715 24.198 44.461 24.0811 44.673 23.6617L46.3295 20.3853C46.3913 20.2629 46.4355 20.1756 46.462 20.1232C46.4972 20.0751 46.5501 20.0141 46.6204 19.94C46.6908 19.8658 46.7698 19.829 46.8574 19.8294C46.9449 19.8298 47.0455 19.8587 47.1591 19.9161L48.9153 20.8039C49.3434 21.0204 49.4536 21.3339 49.246 21.7446L46.2512 27.6684Z" fill="#F1A62D"/>
<path d="M13.0842 25.8984C12.0147 27.1459 10.6194 27.3345 8.89813 26.4643C7.52639 25.7708 6.70443 25.0097 6.43227 24.181C6.16011 23.3522 6.35753 22.2782 7.02452 20.9589C7.74453 19.5347 8.53205 18.6822 9.38708 18.4014C10.2465 18.1119 11.3534 18.3095 12.7077 18.9941C13.4154 19.3519 13.9435 19.7396 14.2919 20.1571C14.6534 20.5702 14.8658 21.0616 14.929 21.631C14.9501 21.8063 14.7196 21.9475 14.2375 22.0549C13.7685 22.1579 13.2955 22.2039 12.8183 22.1931C12.3498 22.1866 12.1245 22.1331 12.1425 22.0324C12.1696 21.8487 12.1856 21.6977 12.1905 21.5795C12.1998 21.4525 12.1676 21.3211 12.0937 21.185C12.0243 21.0402 11.9066 20.9258 11.7406 20.8419C11.3824 20.6608 11.0553 20.8629 10.7593 21.4483L9.80521 23.3356C9.68153 23.5802 9.60816 23.8338 9.58511 24.0965C9.5752 24.3547 9.6751 24.5369 9.88479 24.6429C10.243 24.824 10.6577 24.6222 11.1288 24.0376C11.1904 23.9591 11.3108 23.9596 11.49 24.0392C11.6735 24.1101 11.8657 24.2292 12.0663 24.3964C12.2757 24.5681 12.4698 24.7485 12.6485 24.9376C12.8359 25.1311 12.9708 25.3199 13.0531 25.5042C13.1487 25.6841 13.159 25.8155 13.0842 25.8984Z" fill="#F1A62D"/>
<path d="M22.0305 29.7301L23.0707 27.6725C23.3667 27.0871 23.3312 26.7016 22.9642 26.5161C22.6235 26.3439 22.3051 26.5504 22.0092 27.1358L20.9623 29.2065C20.684 29.757 20.724 30.1228 21.0822 30.3039C21.4317 30.4805 21.7478 30.2893 22.0305 29.7301ZM18.1954 25.2077L18.9555 25.592C19.6161 24.7192 20.3212 24.2035 21.0706 24.0449C21.8244 23.8774 22.8129 24.1029 24.0361 24.7214C25.2506 25.3353 25.9873 26.0808 26.2461 26.9576C26.518 27.8301 26.3028 28.961 25.6005 30.3502C24.9821 31.5734 24.2409 32.3451 23.3769 32.6653C22.5261 32.9811 21.476 32.8232 20.2266 32.1915C19.0209 31.582 18.2422 30.9305 17.8906 30.2372C17.5522 29.5395 17.5803 28.6377 17.9749 27.5317L17.2147 27.1474L16.1944 29.1657C16.1237 29.3055 16.0619 29.4059 16.0091 29.467C15.9651 29.5324 15.8882 29.5759 15.7787 29.5973C15.6779 29.6231 15.5576 29.6007 15.4178 29.53L13.5567 28.5891C13.3296 28.4743 13.2053 28.3512 13.184 28.2197C13.1759 28.0839 13.2226 27.9156 13.3242 27.7146L16.3522 21.7253C16.5068 21.4194 16.7151 21.3328 16.9773 21.4653L18.8514 22.4128C19.1135 22.5453 19.2618 22.6642 19.2964 22.7694C19.331 22.8747 19.3063 23.0103 19.2224 23.1763L18.1954 25.2077Z" fill="#F1A62D"/>
<path d="M32.6062 37.1667C32.2838 37.8045 31.9422 38.3174 31.5814 38.7055C31.2294 39.098 30.8932 39.3723 30.5729 39.5285C30.2569 39.6979 29.9063 39.773 29.5211 39.7537C29.1402 39.7477 28.7968 39.6892 28.4908 39.5784C28.1891 39.4808 27.8417 39.3325 27.4485 39.1338C26.3651 38.586 25.5311 38.0766 24.9464 37.6055C24.8199 37.5086 24.7437 37.4098 24.7179 37.309C24.6876 37.2169 24.7123 37.0922 24.7918 36.9349L25.4345 35.6637C25.5361 35.4627 25.7267 35.4329 26.0063 35.5743C26.0674 35.6052 26.1373 35.6515 26.2158 35.7131C26.94 36.2987 27.5599 36.7217 28.0754 36.9824C28.3026 37.0972 28.5367 37.1114 28.7779 37.0249C29.0279 36.9428 29.2191 36.7707 29.3516 36.5086L29.6697 35.8795C29.0199 36.2751 28.197 36.2211 27.2009 35.7175C25.6108 34.9136 25.465 33.2272 26.7637 30.6585C27.9872 28.2383 29.3941 27.4301 30.9843 28.2341C31.9279 28.7111 32.4548 29.3505 32.5651 30.1523C32.7153 29.8552 32.8495 29.6982 32.9678 29.6812C33.0993 29.6599 33.2873 29.7111 33.532 29.8347L35.2751 30.716C35.4148 30.7866 35.4998 30.879 35.53 30.9929C35.5688 31.1113 35.5706 31.2164 35.5351 31.3082C35.5128 31.3957 35.4642 31.5137 35.3891 31.6622L32.6062 37.1667ZM30.3026 33.8464L31.2567 31.9591C31.5968 31.2863 31.6096 30.8705 31.2951 30.7114C30.9369 30.5303 30.5877 30.7762 30.2476 31.4489L29.2935 33.3362C29.2095 33.5022 29.1454 33.6398 29.1012 33.7491C29.0613 33.8496 29.052 33.9765 29.0732 34.1299C29.0988 34.2745 29.1859 34.3843 29.3344 34.4594C29.4568 34.5213 29.5705 34.5458 29.6756 34.5332C29.7808 34.5205 29.8729 34.4684 29.9522 34.3768C30.0314 34.2852 30.093 34.2066 30.1371 34.1412C30.1812 34.0757 30.2363 33.9774 30.3026 33.8464Z" fill="#F1A62D"/>
<path d="M41.0289 41.5894C40.967 41.7117 40.9185 41.7969 40.8833 41.8449C40.8568 41.8973 40.8083 41.9606 40.7379 42.0347C40.6675 42.1088 40.5886 42.1457 40.501 42.1453C40.4134 42.1449 40.3129 42.116 40.1993 42.0586L38.4431 41.1707C38.015 40.9543 37.8672 40.715 37.9997 40.4529L38.1587 40.1383C37.3516 40.4763 36.4412 40.389 35.4277 39.8766C34.8074 39.563 34.4464 39.0075 34.3449 38.2102C34.2478 37.4042 34.5084 36.3895 35.1268 35.1663C36.4255 32.5976 37.8786 31.7196 39.4863 32.5323C40.0367 32.8106 40.4077 33.0859 40.5991 33.3582C40.8037 33.6262 40.9554 33.9772 41.0542 34.4111L41.1005 34.3193C41.1712 34.1795 41.268 34.0749 41.3909 34.0054C41.5138 33.9359 41.6364 33.932 41.7588 33.9939L43.7377 34.9944C43.9387 35.096 44.0499 35.2015 44.0713 35.3111C44.1058 35.4163 44.0834 35.5476 44.0039 35.7048L41.0289 41.5894ZM38.838 38.0134L39.7921 36.1262C39.8584 35.9951 39.9048 35.8924 39.9314 35.8181C39.958 35.7438 39.9847 35.6476 40.0115 35.5295C40.0383 35.4114 40.0256 35.3063 39.9735 35.2141C39.9214 35.1219 39.8342 35.0449 39.7118 34.9831C39.5633 34.908 39.421 34.9073 39.2849 34.9812C39.1533 35.0463 39.0566 35.129 38.9949 35.2294C38.9375 35.3211 38.8669 35.45 38.783 35.616L37.8289 37.5032C37.4888 38.176 37.4978 38.6029 37.856 38.784C38.1706 38.9431 38.4979 38.6862 38.838 38.0134Z" fill="#F1A62D"/>
<path d="M19.0565 14.0186L21.0111 10.1524L16.9131 13.0831C16.7376 13.1699 16.606 13.2131 16.5184 13.2127C16.4309 13.2123 16.3085 13.1723 16.1512 13.0928L13.5956 11.8008C13.2461 11.6241 13.1 11.479 13.1575 11.3654C13.1928 11.2955 13.2851 11.2215 13.4343 11.1433L19.1508 7.58276L18.3448 2.73228C18.28 2.53496 18.2653 2.40136 18.3006 2.33146C18.3359 2.26156 18.3973 2.23775 18.4848 2.26003C18.5723 2.28231 18.734 2.35308 18.9699 2.47235L21.1848 3.59211C21.3245 3.66278 21.4249 3.74642 21.4857 3.84301C21.551 3.93087 21.629 4.11292 21.7198 4.38916L21.9586 8.27826L23.4759 5.27702C23.5599 5.11101 23.6631 5.02609 23.7858 5.02226C23.9215 5.0141 24.1117 5.07187 24.3564 5.19555L26.3878 6.22255C26.5625 6.31089 26.6541 6.40105 26.6624 6.49304C26.6752 6.57629 26.6374 6.70528 26.549 6.88003L25.0516 9.84195L28.3251 7.72856C28.6013 7.63784 28.7942 7.59273 28.9037 7.59321C29.0175 7.58496 29.1444 7.61617 29.2842 7.68685L31.499 8.80661C31.735 8.92587 31.8878 9.01412 31.9576 9.07135C32.0274 9.12858 32.0446 9.19214 32.0093 9.26204C31.974 9.33194 31.8576 9.39928 31.6603 9.46409L27.2764 11.6908L27.7983 18.4052C27.8238 18.5717 27.8189 18.6899 27.7836 18.7598C27.7261 18.8734 27.5227 18.8418 27.1732 18.6651L24.6176 17.3731C24.4603 17.2936 24.3555 17.2187 24.3033 17.1484C24.2511 17.0781 24.2079 16.9466 24.1737 16.7538L24.1041 11.7161L22.1031 15.674C22.0413 15.7964 21.9622 15.8661 21.8658 15.8832C21.7781 15.9047 21.6425 15.869 21.4591 15.7763L19.5063 14.789C19.2616 14.6653 19.1024 14.5464 19.0284 14.4323C18.9632 14.3225 18.9726 14.1846 19.0565 14.0186Z" stroke="white" stroke-width="4" mask="url(#path-1-outside-1_60_52)"/>
<path d="M37.8579 23.639C37.7961 23.7613 37.7169 23.831 37.6205 23.8481C37.5329 23.8696 37.3973 23.834 37.2138 23.7412L35.6149 22.9329C35.3703 22.8092 35.211 22.6903 35.137 22.5761C35.0719 22.4664 35.0812 22.3285 35.1651 22.1625L36.5036 19.5151C36.5256 19.4714 36.5148 19.4385 36.4712 19.4165C36.41 19.3855 36.3618 19.3831 36.3267 19.4092L33.7164 21.5453C33.6945 21.5671 33.6659 21.591 33.6307 21.6171C33.4858 21.7303 33.3783 21.7802 33.3083 21.7668C33.2689 21.7578 33.2143 21.7357 33.1444 21.7004L33.0002 21.6275C32.9565 21.6054 32.9216 21.5877 32.8954 21.5745C32.8692 21.5612 32.8451 21.5436 32.8234 21.5216C32.7971 21.5084 32.7753 21.4973 32.7578 21.4885C32.7535 21.4753 32.7448 21.46 32.7318 21.4424C32.7231 21.4161 32.7144 21.4007 32.7057 21.3963C32.7101 21.3876 32.7102 21.3657 32.706 21.3306C32.7018 21.2956 32.6997 21.2671 32.6998 21.2452C32.7086 21.2277 32.7131 21.1971 32.7133 21.1533C32.718 21.1008 32.7225 21.0592 32.727 21.0286L32.9647 17.7918C32.9692 17.7612 32.9496 17.7348 32.9059 17.7128C32.8186 17.6686 32.7638 17.6683 32.7417 17.712L31.3967 20.3725C31.3525 20.4599 31.3107 20.521 31.2711 20.5558C31.2447 20.5864 31.1877 20.6014 31.1002 20.6011C31.017 20.5919 30.9012 20.5498 30.7526 20.4747L29.1537 19.6664C28.7081 19.4411 28.5582 19.1843 28.704 18.896L31.838 12.6969C31.9219 12.5309 32.0252 12.446 32.1478 12.4422C32.2835 12.434 32.4738 12.4918 32.7184 12.6154L34.7498 13.6424C35.0818 13.8103 35.2539 14.0015 35.2661 14.2161L35.0008 17.768C34.9962 17.8205 35.0157 17.8578 35.0594 17.8799C35.0943 17.8976 35.1337 17.8956 35.1776 17.8739L37.874 15.5675C38.0629 15.4326 38.3364 15.4557 38.6947 15.6368L40.8571 16.7301C41.0231 16.814 41.1103 16.9019 41.1187 16.9939C41.1357 17.0903 41.1023 17.2215 41.0184 17.3875L37.8579 23.639Z" stroke="white" stroke-width="4" mask="url(#path-1-outside-1_60_52)"/>
<path d="M46.2512 27.6684C46.1805 27.8082 46.0837 27.9129 45.9608 27.9824C45.8379 28.0519 45.7153 28.0557 45.593 27.9939L43.7188 27.0464C43.6227 26.9978 43.5463 26.9537 43.4896 26.914C43.4416 26.8788 43.3914 26.826 43.3392 26.7557C43.287 26.6854 43.2655 26.5978 43.2747 26.4927C43.2971 26.3834 43.3436 26.2588 43.4143 26.119C42.976 26.2265 42.5795 26.2729 42.2249 26.2582C41.8747 26.2348 41.4856 26.1148 41.0575 25.8984C40.5245 25.6289 40.1367 25.2025 39.8941 24.6191C39.6603 24.0401 39.7377 23.3662 40.1264 22.5973L42.2798 18.3379C42.5183 17.8661 42.8079 17.7163 43.1487 17.8886L44.9835 18.8162C45.1495 18.9001 45.2716 19.0276 45.3496 19.1987C45.4277 19.3699 45.4269 19.534 45.3474 19.6913L43.6247 23.0988C43.4039 23.5357 43.4638 23.8403 43.8046 24.0125C44.1715 24.198 44.461 24.0811 44.673 23.6617L46.3295 20.3853C46.3913 20.2629 46.4355 20.1756 46.462 20.1232C46.4972 20.0751 46.5501 20.0141 46.6204 19.94C46.6908 19.8658 46.7698 19.829 46.8574 19.8294C46.9449 19.8298 47.0455 19.8587 47.1591 19.9161L48.9153 20.8039C49.3434 21.0204 49.4536 21.3339 49.246 21.7446L46.2512 27.6684Z" stroke="white" stroke-width="4" mask="url(#path-1-outside-1_60_52)"/>
<path d="M13.0842 25.8984C12.0147 27.1459 10.6194 27.3345 8.89813 26.4643C7.52639 25.7708 6.70443 25.0097 6.43227 24.181C6.16011 23.3522 6.35753 22.2782 7.02452 20.9589C7.74453 19.5347 8.53205 18.6822 9.38708 18.4014C10.2465 18.1119 11.3534 18.3095 12.7077 18.9941C13.4154 19.3519 13.9435 19.7396 14.2919 20.1571C14.6534 20.5702 14.8658 21.0616 14.929 21.631C14.9501 21.8063 14.7196 21.9475 14.2375 22.0549C13.7685 22.1579 13.2955 22.2039 12.8183 22.1931C12.3498 22.1866 12.1245 22.1331 12.1425 22.0324C12.1696 21.8487 12.1856 21.6977 12.1905 21.5795C12.1998 21.4525 12.1676 21.3211 12.0937 21.185C12.0243 21.0402 11.9066 20.9258 11.7406 20.8419C11.3824 20.6608 11.0553 20.8629 10.7593 21.4483L9.80521 23.3356C9.68153 23.5802 9.60816 23.8338 9.58511 24.0965C9.5752 24.3547 9.6751 24.5369 9.88479 24.6429C10.243 24.824 10.6577 24.6222 11.1288 24.0376C11.1904 23.9591 11.3108 23.9596 11.49 24.0392C11.6735 24.1101 11.8657 24.2292 12.0663 24.3964C12.2757 24.5681 12.4698 24.7485 12.6485 24.9376C12.8359 25.1311 12.9708 25.3199 13.0531 25.5042C13.1487 25.6841 13.159 25.8155 13.0842 25.8984Z" stroke="white" stroke-width="4" mask="url(#path-1-outside-1_60_52)"/>
<path d="M22.0305 29.7301L23.0707 27.6725C23.3667 27.0871 23.3312 26.7016 22.9642 26.5161C22.6235 26.3439 22.3051 26.5504 22.0092 27.1358L20.9623 29.2065C20.684 29.757 20.724 30.1228 21.0822 30.3039C21.4317 30.4805 21.7478 30.2893 22.0305 29.7301ZM18.1954 25.2077L18.9555 25.592C19.6161 24.7192 20.3212 24.2035 21.0706 24.0449C21.8244 23.8774 22.8129 24.1029 24.0361 24.7214C25.2506 25.3353 25.9873 26.0808 26.2461 26.9576C26.518 27.8301 26.3028 28.961 25.6005 30.3502C24.9821 31.5734 24.2409 32.3451 23.3769 32.6653C22.5261 32.9811 21.476 32.8232 20.2266 32.1915C19.0209 31.582 18.2422 30.9305 17.8906 30.2372C17.5522 29.5395 17.5803 28.6377 17.9749 27.5317L17.2147 27.1474L16.1944 29.1657C16.1237 29.3055 16.0619 29.4059 16.0091 29.467C15.9651 29.5324 15.8882 29.5759 15.7787 29.5973C15.6779 29.6231 15.5576 29.6007 15.4178 29.53L13.5567 28.5891C13.3296 28.4743 13.2053 28.3512 13.184 28.2197C13.1759 28.0839 13.2226 27.9156 13.3242 27.7146L16.3522 21.7253C16.5068 21.4194 16.7151 21.3328 16.9773 21.4653L18.8514 22.4128C19.1135 22.5453 19.2618 22.6642 19.2964 22.7694C19.331 22.8747 19.3063 23.0103 19.2224 23.1763L18.1954 25.2077Z" stroke="white" stroke-width="4" mask="url(#path-1-outside-1_60_52)"/>
<path d="M32.6062 37.1667C32.2838 37.8045 31.9422 38.3174 31.5814 38.7055C31.2294 39.098 30.8932 39.3723 30.5729 39.5285C30.2569 39.6979 29.9063 39.773 29.5211 39.7537C29.1402 39.7477 28.7968 39.6892 28.4908 39.5784C28.1891 39.4808 27.8417 39.3325 27.4485 39.1338C26.3651 38.586 25.5311 38.0766 24.9464 37.6055C24.8199 37.5086 24.7437 37.4098 24.7179 37.309C24.6876 37.2169 24.7123 37.0922 24.7918 36.9349L25.4345 35.6637C25.5361 35.4627 25.7267 35.4329 26.0063 35.5743C26.0674 35.6052 26.1373 35.6515 26.2158 35.7131C26.94 36.2987 27.5599 36.7217 28.0754 36.9824C28.3026 37.0972 28.5367 37.1114 28.7779 37.0249C29.0279 36.9428 29.2191 36.7707 29.3516 36.5086L29.6697 35.8795C29.0199 36.2751 28.197 36.2211 27.2009 35.7175C25.6108 34.9136 25.465 33.2272 26.7637 30.6585C27.9872 28.2383 29.3941 27.4301 30.9843 28.2341C31.9279 28.7111 32.4548 29.3505 32.5651 30.1523C32.7153 29.8552 32.8495 29.6982 32.9678 29.6812C33.0993 29.6599 33.2873 29.7111 33.532 29.8347L35.2751 30.716C35.4148 30.7866 35.4998 30.879 35.53 30.9929C35.5688 31.1113 35.5706 31.2164 35.5351 31.3082C35.5128 31.3957 35.4642 31.5137 35.3891 31.6622L32.6062 37.1667ZM30.3026 33.8464L31.2567 31.9591C31.5968 31.2863 31.6096 30.8705 31.2951 30.7114C30.9369 30.5303 30.5877 30.7762 30.2476 31.4489L29.2935 33.3362C29.2095 33.5022 29.1454 33.6398 29.1012 33.7491C29.0613 33.8496 29.052 33.9765 29.0732 34.1299C29.0988 34.2745 29.1859 34.3843 29.3344 34.4594C29.4568 34.5213 29.5705 34.5458 29.6756 34.5332C29.7808 34.5205 29.8729 34.4684 29.9522 34.3768C30.0314 34.2852 30.093 34.2066 30.1371 34.1412C30.1812 34.0757 30.2363 33.9774 30.3026 33.8464Z" stroke="white" stroke-width="4" mask="url(#path-1-outside-1_60_52)"/>
<path d="M41.0289 41.5894C40.967 41.7117 40.9185 41.7969 40.8833 41.8449C40.8568 41.8973 40.8083 41.9606 40.7379 42.0347C40.6675 42.1088 40.5886 42.1457 40.501 42.1453C40.4134 42.1449 40.3129 42.116 40.1993 42.0586L38.4431 41.1707C38.015 40.9543 37.8672 40.715 37.9997 40.4529L38.1587 40.1383C37.3516 40.4763 36.4412 40.389 35.4277 39.8766C34.8074 39.563 34.4464 39.0075 34.3449 38.2102C34.2478 37.4042 34.5084 36.3895 35.1268 35.1663C36.4255 32.5976 37.8786 31.7196 39.4863 32.5323C40.0367 32.8106 40.4077 33.0859 40.5991 33.3582C40.8037 33.6262 40.9554 33.9772 41.0542 34.4111L41.1005 34.3193C41.1712 34.1795 41.268 34.0749 41.3909 34.0054C41.5138 33.9359 41.6364 33.932 41.7588 33.9939L43.7377 34.9944C43.9387 35.096 44.0499 35.2015 44.0713 35.3111C44.1058 35.4163 44.0834 35.5476 44.0039 35.7048L41.0289 41.5894ZM38.838 38.0134L39.7921 36.1262C39.8584 35.9951 39.9048 35.8924 39.9314 35.8181C39.958 35.7438 39.9847 35.6476 40.0115 35.5295C40.0383 35.4114 40.0256 35.3063 39.9735 35.2141C39.9214 35.1219 39.8342 35.0449 39.7118 34.9831C39.5633 34.908 39.421 34.9073 39.2849 34.9812C39.1533 35.0463 39.0566 35.129 38.9949 35.2294C38.9375 35.3211 38.8669 35.45 38.783 35.616L37.8289 37.5032C37.4888 38.176 37.4978 38.6029 37.856 38.784C38.1706 38.9431 38.4979 38.6862 38.838 38.0134Z" stroke="white" stroke-width="4" mask="url(#path-1-outside-1_60_52)"/>
</g>
<defs>
<filter id="filter0_d_60_52" x="0.313232" y="0.251953" width="55.0352" height="51.8933" filterUnits="userSpaceOnUse" color-interpolation-filters="sRGB">
<feFlood flood-opacity="0" result="BackgroundImageFix"/>
<feColorMatrix in="SourceAlpha" type="matrix" values="0 0 0 0 0 0 0 0 0 0 0 0 0 0 0 0 0 0 127 0" result="hardAlpha"/>
<feOffset dy="4"/>
<feGaussianBlur stdDeviation="2"/>
<feComposite in2="hardAlpha" operator="out"/>
<feColorMatrix type="matrix" values="0 0 0 0 0 0 0 0 0 0 0 0 0 0 0 0 0 0 0.25 0"/>
<feBlend mode="normal" in2="BackgroundImageFix" result="effect1_dropShadow_60_52"/>
<feBlend mode="normal" in="SourceGraphic" in2="effect1_dropShadow_60_52" result="shape"/>
</filter>
</defs>
</svg>
