<svg xmlns="http://www.w3.org/2000/svg" width="22.125" height="24" viewBox="0 0 22.125 24">
  <path id="Path_6046" data-name="Path 6046" d="M6.989,3a6.036,6.036,0,0,0,4.281-1.771L21.477-8.977a.563.563,0,0,0,0-.8l-.265-.265a.562.562,0,0,0-.8,0L10.21.169a4.56,4.56,0,0,1-6.441,0,4.559,4.559,0,0,1,0-6.441L16.053-18.557a3.232,3.232,0,0,1,4.565,0,3.232,3.232,0,0,1,0,4.565L10.183-3.556a1.9,1.9,0,0,1-2.69,0,1.9,1.9,0,0,1,0-2.69l7.983-7.983a.563.563,0,0,0,0-.8l-.265-.265a.563.563,0,0,0-.8,0L6.432-7.306a3.406,3.406,0,0,0,0,4.812,3.406,3.406,0,0,0,4.812,0L21.68-12.93a4.734,4.734,0,0,0,0-6.687,4.734,4.734,0,0,0-6.687,0L2.708-7.333a6.061,6.061,0,0,0,0,8.562A6.036,6.036,0,0,0,6.989,3Z" transform="translate(-0.938 21)" fill="#fff"/>
</svg>
