<svg width="152" height="152" viewBox="0 0 152 152" fill="none" xmlns="http://www.w3.org/2000/svg">
<circle cx="63.9626" cy="53.9416" r="35" fill="white"/>
<g clip-path="url(#clip0_306_29)">
<path d="M58.6653 60.8769L72.1809 53.9158L58.6653 46.8964V60.8769Z" fill="white"/>
<path opacity="0.12" d="M58.6653 46.8964L70.5208 54.7714L72.1809 53.9158L58.6653 46.8964Z" fill="#420000"/>
<path d="M88.2944 44.4658C88.2944 44.4658 87.8063 41.0436 86.303 39.5269C84.4092 37.5436 82.2811 37.5436 81.2854 37.4269C74.3157 36.9214 63.8313 36.9214 63.8313 36.9214H63.8118C63.8118 36.9214 53.3276 36.9214 46.3186 37.4269C45.3424 37.5436 43.2143 37.5436 41.301 39.5269C39.8172 41.0436 39.3292 44.4658 39.3292 44.4658C39.3292 44.4658 38.8215 48.5103 38.8215 52.5353V56.3075C38.8215 60.3325 39.3292 64.3575 39.3292 64.3575C39.3292 64.3575 39.8172 67.7797 41.3206 69.2964C43.2143 71.2797 45.7133 71.2214 46.8262 71.4158C50.8286 71.8047 63.8118 71.9214 63.8118 71.9214C63.8118 71.9214 74.3155 71.9019 81.3049 71.3964C82.2811 71.2797 84.4092 71.2797 86.3225 69.2964C87.8258 67.7797 88.3139 64.3575 88.3139 64.3575C88.3139 64.3575 88.8215 60.3325 88.8215 56.3075V52.5353C88.802 48.5103 88.2944 44.4658 88.2944 44.4658ZM58.6577 60.8769V46.8964L72.1678 53.9158L58.6575 60.8769H58.6577Z" fill="url(#paint0_linear_306_29)"/>
</g>
<path d="M40.6951 87.7864L46.9549 91.5343L41.0866 101.336L39.1098 100.152L44.0083 91.9706L41.7021 90.5898L36.8035 98.7715L34.8268 97.588L40.6951 87.7864Z" fill="white"/>
<path d="M50.1059 104.94C49.276 104.7 48.6537 104.375 48.2391 103.967C47.8274 103.548 47.5596 103.054 47.4356 102.485C47.3248 101.908 47.3279 101.265 47.4447 100.555C47.5748 99.8375 47.7629 99.0536 48.0092 98.2032C48.2495 97.3733 48.5064 96.6204 48.7799 95.9444C49.0666 95.2612 49.4107 94.7057 49.8123 94.2778C50.2241 93.8529 50.7159 93.5734 51.2878 93.4392C51.8627 93.2947 52.5651 93.3426 53.395 93.583C54.2249 93.8233 54.8442 94.1581 55.2529 94.5874C55.6646 95.0065 55.9258 95.5041 56.0365 96.0803C56.1575 96.6595 56.1515 97.313 56.0185 98.0407C55.8987 98.7611 55.7186 99.5363 55.4783 100.366C55.232 101.217 54.967 101.978 54.6833 102.651C54.4128 103.317 54.0716 103.862 53.6598 104.287C53.2613 104.705 52.776 104.981 52.2041 105.115C51.6352 105.239 50.9358 105.181 50.1059 104.94ZM50.5643 103.357C50.8922 103.452 51.1742 103.456 51.4104 103.369C51.6598 103.275 51.8818 103.084 52.0762 102.796C52.2838 102.501 52.4772 102.101 52.6563 101.598C52.8486 101.087 53.0516 100.463 53.2652 99.7253C53.4789 98.9876 53.6394 98.3567 53.7467 97.8326C53.8644 97.3114 53.9143 96.8705 53.8965 96.51C53.889 96.1525 53.8036 95.8723 53.6402 95.6696C53.4901 95.4595 53.251 95.307 52.9232 95.212C52.5953 95.1171 52.3067 95.1168 52.0573 95.2111C51.821 95.2982 51.5991 95.4893 51.3915 95.7846C51.1941 96.0827 51.0007 96.4821 50.8114 96.9825C50.6323 97.4859 50.4359 98.1064 50.2223 98.8441C50.0086 99.5818 49.8415 100.216 49.7209 100.748C49.6136 101.272 49.5636 101.713 49.5711 102.07C49.5918 102.421 49.6773 102.701 49.8275 102.911C49.9908 103.114 50.2364 103.262 50.5643 103.357Z" fill="white"/>
<path d="M58.8859 104.842L59.7978 104.856C60.0943 104.317 60.3213 103.792 60.4786 103.283C60.6468 102.763 60.7672 102.231 60.8397 101.688C60.9229 101.146 60.9744 100.586 60.9941 100.011C61.0246 99.4243 61.0452 98.7952 61.0558 98.1233L61.0995 95.3397L67.7067 95.4435L67.5569 104.978L68.6287 104.995L68.5636 109.139L66.4359 109.105L66.4713 106.849L60.984 106.763L60.9486 109.019L58.8208 108.986L58.8859 104.842ZM65.3011 104.943L65.4213 97.2958L63.2616 97.2619L63.2324 99.1176C63.2254 99.5656 63.2018 100.045 63.1618 100.557C63.1324 101.068 63.0817 101.58 63.0097 102.091C62.9376 102.601 62.8391 103.101 62.7141 103.59C62.5999 104.068 62.4544 104.503 62.2775 104.895L65.3011 104.943Z" fill="white"/>
<path d="M71.0316 95.0315L74.9378 94.0322C75.5062 93.8867 76.0066 93.8633 76.4392 93.9618C76.8795 94.0474 77.2581 94.2147 77.5751 94.464C77.8921 94.7132 78.1538 95.0261 78.3603 95.4026C78.5641 95.7689 78.7189 96.1587 78.8246 96.572C78.9727 97.1507 79.013 97.6744 78.9458 98.143C78.8862 98.5987 78.7357 99.0005 78.4945 99.3485C78.2635 99.6939 77.9482 99.9892 77.5486 100.235C77.1489 100.48 76.6856 100.67 76.1586 100.805L74.965 101.11L76.0952 105.528L73.8631 106.099L71.0316 95.0315ZM75.5367 99.2134C75.981 99.0997 76.3032 98.8742 76.5031 98.5367C76.7134 98.1967 76.7458 97.7425 76.6004 97.1741C76.4577 96.6161 76.2304 96.2228 75.9187 95.9943C75.607 95.7657 75.1722 95.7228 74.6141 95.8656L73.6841 96.1035L74.5446 99.4672L75.5367 99.2134Z" fill="white"/>
<path d="M89.8403 100.421C89.0854 100.842 88.4169 101.055 87.8346 101.062C87.2472 101.059 86.7078 100.902 86.2164 100.589C85.7292 100.262 85.2744 99.8076 84.8522 99.2247C84.4341 98.6273 84.0097 97.9418 83.579 97.1683C83.1587 96.4135 82.8047 95.701 82.5171 95.031C82.2336 94.3464 82.0812 93.711 82.0599 93.1246C82.0479 92.533 82.1956 91.9869 82.5028 91.4862C82.8048 90.9762 83.3333 90.511 84.0882 90.0907C84.843 89.6704 85.5168 89.4661 86.1094 89.478C86.6968 89.4805 87.2342 89.6453 87.7214 89.9722C88.218 90.2939 88.6779 90.7581 89.1012 91.3649C89.5286 91.9571 89.9525 92.6306 90.3728 93.3855C90.8035 94.159 91.158 94.8833 91.4363 95.5586C91.7188 96.2193 91.866 96.8454 91.8779 97.437C91.894 98.0141 91.7485 98.5529 91.4412 99.0536C91.1288 99.545 90.5952 100.001 89.8403 100.421ZM89.0386 98.9814C89.3368 98.8153 89.5381 98.6177 89.6425 98.3887C89.7511 98.1451 89.7715 97.8529 89.7039 97.5121C89.6403 97.1568 89.4928 96.7384 89.2613 96.2569C89.0339 95.7608 88.7334 95.1773 88.3598 94.5063C87.9862 93.8353 87.651 93.2772 87.3543 92.832C87.0669 92.3816 86.7889 92.0358 86.5203 91.7947C86.2611 91.5484 86.0019 91.4119 85.7429 91.3852C85.488 91.344 85.2114 91.4064 84.9132 91.5725C84.615 91.7385 84.4116 91.9433 84.3031 92.1869C84.1986 92.416 84.1782 92.7081 84.2417 93.0634C84.3146 93.4135 84.4621 93.832 84.6843 94.3187C84.9158 94.8002 85.2184 95.3765 85.592 96.0475C85.9656 96.7185 86.2987 97.2838 86.5913 97.7436C86.888 98.1888 87.166 98.5345 87.4253 98.7809C87.6887 99.0127 87.9478 99.1492 88.2027 99.1904C88.4617 99.2171 88.7404 99.1474 89.0386 98.9814Z" fill="white"/>
<path d="M89.9022 86.6467L94.7123 82.023L96.0207 83.3841L92.8716 86.4111L94.6125 88.2221L95.6275 87.2464C96.0428 86.8472 96.4526 86.5347 96.8569 86.3088C97.2688 86.0755 97.6787 85.9478 98.0866 85.9257C98.4944 85.9036 98.9112 85.9986 99.337 86.2107C99.7631 86.4077 100.198 86.7369 100.641 87.1983C101.092 87.6674 101.415 88.1264 101.61 88.5753C101.797 89.0166 101.872 89.4556 101.833 89.8924C101.794 90.3292 101.65 90.7563 101.4 91.1739C101.151 91.5914 100.807 92.0108 100.368 92.4322L97.8191 94.8826L89.9022 86.6467ZM98.8487 91.4516C99.0871 91.2225 99.2724 91.0074 99.4046 90.8063C99.5369 90.6052 99.6088 90.4029 99.6203 90.1995C99.6396 89.9886 99.5948 89.7727 99.486 89.5518C99.3772 89.3309 99.1934 89.0859 98.9347 88.8167C98.4838 88.3476 98.0692 88.1395 97.691 88.1924C97.313 88.2302 96.9049 88.4598 96.4666 88.8811L95.8322 89.491L98.2604 92.0171L98.8487 91.4516Z" fill="white"/>
<path d="M97.1219 79.1457L98.3214 77.1785L102.051 79.4525L103.45 77.1575L99.7207 74.8835L100.92 72.9164L110.674 78.8637L109.475 80.8309L105.144 78.1904L103.745 80.4854L108.075 83.1259L106.876 85.093L97.1219 79.1457Z" fill="white"/>
<path d="M102.192 70.0527L104.018 63.9352L105.827 64.475L104.66 68.3847L107.236 69.1533L108.334 65.4736L110.143 66.0134L109.045 69.6931L111.989 70.5714L113.201 66.5084L115.01 67.0483L113.139 73.3191L102.192 70.0527Z" fill="white"/>
<path d="M104.779 59.9683L104.986 53.5876L106.873 53.6487L106.741 57.7266L109.427 57.8136L109.552 53.9756L111.439 54.0367L111.314 57.8747L114.385 57.9742L114.522 53.7364L116.409 53.7975L116.197 60.3381L104.779 59.9683Z" fill="white"/>
<defs>
<linearGradient id="paint0_linear_306_29" x1="63.8115" y1="36.9214" x2="63.8115" y2="71.9319" gradientUnits="userSpaceOnUse">
<stop stop-color="#E52D27"/>
<stop offset="1" stop-color="#BF171D"/>
</linearGradient>
<clipPath id="clip0_306_29">
<rect width="50" height="35" fill="white" transform="translate(38.8215 36.9214)"/>
</clipPath>
</defs>
</svg>
