<svg width="93" height="35" viewBox="0 0 93 35" fill="none" xmlns="http://www.w3.org/2000/svg">
<path d="M4.24951 12.4191C2.74332 13.1094 0.962692 12.448 0.272362 10.9418C-0.417967 9.43563 0.243422 7.655 1.74961 6.96467L4.24951 12.4191ZM86.6373 32.3117C86.2795 33.9295 84.678 34.9509 83.0602 34.5931L56.6974 28.762C55.0796 28.4042 54.0582 26.8027 54.4161 25.1849C54.7739 23.5672 56.3754 22.5458 57.9931 22.9036L81.4268 28.0868L86.6099 4.65312C86.9677 3.03537 88.5692 2.01399 90.187 2.37181C91.8048 2.72963 92.8261 4.33115 92.4683 5.9489L86.6373 32.3117ZM1.74961 6.96467C26.6203 -4.43426 64.4637 -4.09049 86.2375 30.0507L81.1787 33.277C61.5341 2.47432 27.3777 1.81878 4.24951 12.4191L1.74961 6.96467Z" fill="#EBA92D"/>
</svg>
