<svg width="56" height="45" viewBox="0 0 56 45" fill="none" xmlns="http://www.w3.org/2000/svg">
<path d="M51.2661 6.5098C52.6182 5.55212 54.4906 5.87181 55.4482 7.22385C56.4059 8.57589 56.0862 10.4483 54.7342 11.406L51.2661 6.5098ZM0.879138 24.4107C-0.292435 23.2392 -0.292435 21.3397 0.879139 20.1681L19.971 1.0762C21.1426 -0.095368 23.0421 -0.0953675 24.2137 1.07621C25.3852 2.24778 25.3852 4.14727 24.2137 5.31885L7.2431 22.2894L24.2137 39.26C25.3852 40.4315 25.3852 42.331 24.2137 43.5026C23.0421 44.6742 21.1426 44.6742 19.971 43.5026L0.879138 24.4107ZM54.7342 11.406C42.1118 20.3467 26.4645 25.2894 3.00046 25.2894L3.00046 19.2894C25.5381 19.2894 39.8882 14.5691 51.2661 6.5098L54.7342 11.406Z" fill="#EBA92D"/>
</svg>
