<svg width="44" height="44" viewBox="0 0 44 44" fill="none" xmlns="http://www.w3.org/2000/svg">
<path d="M0 22C0 9.85 9.85 0 22 0C34.15 0 44 9.85 44 22C44 34.15 34.15 44 22 44C9.85 44 0 34.15 0 22Z" fill="#E31913"/>
<path d="M29.53 12.01C29.51 12.01 29.49 12 29.46 12H19.72C18.22 12 17 13.23 17 14.75V15.67C17 16.18 17.41 16.59 17.91 16.59C18.41 16.59 18.82 16.18 18.82 15.67V14.75C18.82 14.24 19.23 13.83 19.73 13.83H23.95L23.67 13.92C22.94 14.18 22.44 14.88 22.44 15.66V29.41H19.72C19.22 29.41 18.81 29 18.81 28.49V26.66C18.81 26.15 18.4 25.74 17.9 25.74C17.4 25.74 17 26.16 17 26.67V28.5C17 30.02 18.22 31.25 19.72 31.25H22.44V32.17C22.44 33.18 23.25 34 24.25 34C24.44 34 24.63 33.97 24.83 33.91L30.27 32.07C31.01 31.81 31.5 31.11 31.5 30.33V13.83C31.5 12.76 30.59 11.93 29.53 12.01Z" fill="white"/>
<path d="M18.7302 20.86L15.0902 17.26C14.8302 17 14.4402 16.93 14.1002 17.06C13.7602 17.2 13.5402 17.53 13.5402 17.89V20.59H9.90023C9.40023 20.59 8.99023 20.99 8.99023 21.49C8.99023 21.99 9.40023 22.39 9.90023 22.39H13.5402V25.09C13.5402 25.45 13.7602 25.78 14.1002 25.92C14.4402 26.06 14.8302 25.98 15.0902 25.72L18.7302 22.12C19.0902 21.78 19.0902 21.22 18.7302 20.86Z" fill="white"/>
</svg>
