<svg xmlns="http://www.w3.org/2000/svg" width="189.481" height="39.839" viewBox="0 0 189.481 39.839">
  <path id="ozon" d="M22.1,32.567a10.862,10.862,0,0,0,9.5-9.151c.915-6.941-5.168-12.8-12.368-11.921a10.86,10.86,0,0,0-9.5,9.151C8.818,27.586,14.9,33.449,22.1,32.567ZM.106,24.065c-1.3-12.6,9.6-23.1,22.669-21.855C32.447,3.134,40.27,10.675,41.228,20c1.294,12.6-9.6,23.1-22.673,21.851C8.885,40.923,1.06,33.384.1,24.062ZM47.6,8.61A4.7,4.7,0,0,1,52.319,3H82.574a1.336,1.336,0,0,1,1.109,2.147L62.754,31.763h16.4a4.7,4.7,0,0,1,4.722,5.609,4.906,4.906,0,0,1-4.9,3.685H46.112a1.325,1.325,0,0,1-1.1-2.128L65.962,12.3H52.5A4.908,4.908,0,0,1,47.6,8.61Zm132.241-.838a4.824,4.824,0,0,1,9.644-.124V39.719a1.392,1.392,0,0,1-2.25,1.046l-26.1-19.954V36.419a4.824,4.824,0,0,1-9.644-.122V4.34a1.392,1.392,0,0,1,2.25-1.048l26.1,19.956V7.77Zm-64.18-5.664c15.977,0,28.93,8.917,28.93,19.914s-12.954,19.914-28.93,19.914S86.725,33.022,86.725,22.023,99.679,2.109,115.658,2.109Zm19.286,19.914c0-5.013-8.247-10.618-19.286-10.618S96.37,17.01,96.37,22.023s8.247,10.62,19.288,10.62S134.944,27.036,134.944,22.023Z" transform="translate(-0.001 -2.109)" fill="#fff"/>
</svg>
