<svg width="146" height="33" viewBox="0 0 146 33" fill="none" xmlns="http://www.w3.org/2000/svg">
<path d="M48.4478 25.3487C48.4426 25.8329 48.339 26.3109 48.1433 26.7538C47.9477 27.1967 47.6641 27.5953 47.3097 27.9252C46.9554 28.2552 46.5377 28.5097 46.082 28.6733C45.6262 28.8369 45.142 28.9062 44.6587 28.877L39.2377 28.8551V16.6887L44.2935 16.7106C44.7642 16.6802 45.2362 16.7458 45.6807 16.9035C46.1253 17.0612 46.5332 17.3077 46.8795 17.6279C47.2258 17.9482 47.5033 18.3356 47.6952 18.7665C47.887 19.1974 47.9893 19.6628 47.9956 20.1344C48.0062 20.6012 47.9081 21.064 47.709 21.4863C47.51 21.9086 47.2155 22.2788 46.8487 22.5677C47.3448 22.8399 47.7565 23.2433 48.0385 23.7338C48.3206 24.2244 48.4622 24.7831 48.4478 25.3487ZM41.6352 18.9291V21.6057L44.2928 21.6276C44.6401 21.6161 44.9692 21.4701 45.2108 21.2204C45.4524 20.9706 45.5875 20.6368 45.5875 20.2893C45.5875 19.9418 45.4524 19.608 45.2108 19.3583C44.9692 19.1086 44.6401 18.9625 44.2928 18.951L41.6352 18.9291ZM46.0649 25.1909C46.0719 25.0034 46.0403 24.8164 45.9723 24.6415C45.9042 24.4666 45.8011 24.3075 45.6692 24.174C45.5373 24.0405 45.3795 23.9354 45.2055 23.8652C45.0315 23.795 44.8449 23.7611 44.6573 23.7657L41.6352 23.7438V26.6117L44.6573 26.6336C44.8463 26.638 45.0342 26.6035 45.2093 26.5323C45.3845 26.461 45.5431 26.3544 45.6753 26.2193C45.8075 26.0841 45.9105 25.9232 45.9779 25.7465C46.0453 25.5699 46.0757 25.3813 46.0671 25.1924L46.0649 25.1909Z" fill="white"/>
<path d="M57.6776 28.8772H55.435V22.2903H51.9768V28.8779H49.7342V20.1851H57.6776V28.8772Z" fill="white"/>
<path d="M68.6591 24.5319C68.6844 25.1123 68.5945 25.6919 68.3947 26.2374C68.1948 26.7828 67.8889 27.2833 67.4946 27.7099C67.1002 28.1364 66.6253 28.4807 66.0972 28.7228C65.5692 28.9648 64.9984 29.0999 64.4178 29.1202C63.8814 29.1479 63.346 29.0472 62.8563 28.8266C62.3665 28.6059 61.9364 28.2715 61.6018 27.8513V32.3533H59.3562V20.1862H61.5981V21.2089C61.9328 20.7887 62.3628 20.4543 62.8526 20.2337C63.3424 20.013 63.8777 19.9123 64.4142 19.94C64.9954 19.9598 65.5668 20.0947 66.0956 20.3368C66.6243 20.5789 67.0999 20.9234 67.4946 21.3504C67.8894 21.7774 68.1955 22.2785 68.3954 22.8246C68.5953 23.3707 68.6849 23.951 68.6591 24.5319ZM66.4165 24.5319C66.4086 24.0572 66.2606 23.5953 65.9912 23.2043C65.7218 22.8133 65.3429 22.5106 64.902 22.3341C64.4612 22.1577 63.9781 22.1153 63.5133 22.2124C63.0485 22.3095 62.6227 22.5417 62.2894 22.8799C61.956 23.218 61.73 23.6471 61.6396 24.1133C61.5492 24.5794 61.5985 25.0619 61.7813 25.5001C61.9641 25.9384 62.2723 26.3129 62.6671 26.5766C63.062 26.8404 63.5259 26.9817 64.0007 26.9827C64.324 26.994 64.646 26.9379 64.9465 26.8183C65.247 26.6986 65.5194 26.5179 65.7465 26.2875C65.9735 26.0572 66.1503 25.7822 66.2656 25.48C66.381 25.1778 66.4323 24.855 66.4165 24.5319Z" fill="white"/>
<path d="M69.5685 24.532C69.5668 23.6221 69.8352 22.7321 70.3396 21.9748C70.8441 21.2175 71.5619 20.6269 72.4023 20.2779C73.2426 19.9289 74.1677 19.8371 75.0602 20.0142C75.9528 20.1913 76.7727 20.6293 77.4161 21.2727C78.0595 21.9161 78.4975 22.736 78.6746 23.6286C78.8517 24.5211 78.76 25.4462 78.4109 26.2865C78.0619 27.1269 77.4713 27.8447 76.714 28.3492C75.9567 28.8536 75.0667 29.122 74.1568 29.1203C73.5525 29.1266 72.953 29.0123 72.3934 28.784C71.8339 28.5556 71.3256 28.2179 70.8982 27.7906C70.4709 27.3632 70.1332 26.8549 69.9049 26.2954C69.6765 25.7358 69.5622 25.1363 69.5685 24.532ZM76.5206 24.532C76.5121 24.0685 76.3671 23.6179 76.1036 23.2365C75.8401 22.8551 75.4699 22.5599 75.0394 22.388C74.6088 22.2161 74.1372 22.175 73.6834 22.27C73.2297 22.365 72.8141 22.5917 72.4887 22.9219C72.1632 23.252 71.9425 23.6709 71.8541 24.1259C71.7656 24.581 71.8135 25.052 71.9916 25.48C72.1697 25.908 72.4702 26.2739 72.8553 26.5319C73.2405 26.7899 73.6932 26.9284 74.1568 26.9302C74.4722 26.9376 74.7857 26.8804 75.0781 26.7621C75.3705 26.6437 75.6356 26.4668 75.8571 26.2421C76.0785 26.0174 76.2517 25.7498 76.3658 25.4557C76.4799 25.1616 76.5326 24.8473 76.5206 24.532Z" fill="white"/>
<path d="M85.215 28.8772L82.0512 24.9325V28.8772H79.8093V20.1843H82.0512V24.0143L85.0411 20.1902H87.7177L84.2237 24.4833L87.8221 28.8808L85.215 28.8772Z" fill="white"/>
<path d="M48.3237 12.3285H45.9269V2.4617H41.6353V12.3285H39.2378V0.168701H48.3229L48.3237 12.3285Z" fill="white"/>
<path d="M54.6482 10.5402C55.0174 10.5542 55.3847 10.4831 55.722 10.3325C56.0593 10.1819 56.3575 9.95582 56.5936 9.67168L58.4 10.7134C57.9755 11.316 57.4061 11.8022 56.7444 12.1271C56.0826 12.452 55.3497 12.6052 54.6132 12.5725C54.0047 12.5942 53.398 12.4945 52.8284 12.2793C52.2589 12.0641 51.7378 11.7377 51.2957 11.319C50.8535 10.9004 50.4992 10.3979 50.2532 9.84095C50.0073 9.28396 49.8747 8.68358 49.8632 8.07482C49.8516 7.46605 49.9613 6.86108 50.186 6.29517C50.4107 5.72927 50.7458 5.21374 51.1717 4.77866C51.5976 4.34357 52.1059 3.99764 52.6669 3.76101C53.2279 3.52438 53.8304 3.40179 54.4393 3.4004C55.033 3.39932 55.6209 3.51865 56.1671 3.7512C56.7134 3.98374 57.2069 4.32465 57.6177 4.75333C58.0284 5.18201 58.3481 5.68956 58.5571 6.24526C58.7662 6.80096 58.8604 7.39328 58.834 7.98642C58.8326 8.29521 58.8035 8.60326 58.7471 8.90685H52.1989C52.3483 9.42469 52.6762 9.87287 53.1246 10.1719C53.573 10.4709 54.1128 10.6014 54.6482 10.5402ZM56.5936 7.17046C56.508 6.66676 56.2424 6.2113 55.8461 5.8888C55.4499 5.5663 54.9499 5.39873 54.4393 5.41728C53.9113 5.38105 53.3884 5.53938 52.9691 5.86238C52.5499 6.18538 52.2634 6.65069 52.1638 7.17046H56.5936Z" fill="white"/>
<path d="M69.5196 7.98654C69.545 8.56646 69.4554 9.14569 69.2558 9.69077C69.0562 10.2359 68.7507 10.736 68.3568 11.1624C67.9629 11.5887 67.4884 11.9329 66.9608 12.1749C66.4332 12.417 65.8629 12.5521 65.2828 12.5726C64.7467 12.6003 64.2117 12.4997 63.7223 12.2791C63.2329 12.0586 62.8032 11.7244 62.4689 11.3045V15.8036H60.2278V3.64376H62.4689V4.66646C62.8032 4.24645 63.2329 3.91227 63.7223 3.69171C64.2117 3.47115 64.7467 3.37056 65.2828 3.39831C65.8631 3.41868 66.4337 3.55385 66.9615 3.79599C67.4893 4.03814 67.9638 4.38247 68.3578 4.80909C68.7517 5.23572 69.0573 5.73618 69.2567 6.28156C69.4561 6.82694 69.5454 7.40642 69.5196 7.98654ZM67.2792 7.98654C67.2707 7.5129 67.1226 7.0523 66.8535 6.66248C66.5843 6.27266 66.2061 5.97097 65.7662 5.7952C65.3263 5.61943 64.8443 5.57741 64.3806 5.67441C63.9169 5.77142 63.4922 6.00313 63.1596 6.3405C62.8271 6.67788 62.6015 7.10591 62.5112 7.57094C62.4209 8.03597 62.4699 8.51729 62.652 8.95461C62.8341 9.39193 63.1412 9.76578 63.5349 10.0293C63.9285 10.2928 64.3912 10.4342 64.8649 10.4359C65.1878 10.4468 65.5095 10.3906 65.8097 10.2709C66.1098 10.1512 66.3818 9.97051 66.6086 9.74035C66.8354 9.51019 67.0121 9.2355 67.1274 8.93364C67.2426 8.63177 67.2941 8.30929 67.2785 7.98654H67.2792Z" fill="white"/>
<path d="M75.2708 10.5402C75.64 10.5543 76.0076 10.4833 76.345 10.3327C76.6824 10.1821 76.9807 9.95592 77.2168 9.67168L79.0233 10.7134C78.5988 11.316 78.0294 11.8022 77.3676 12.1271C76.7058 12.452 75.9729 12.6052 75.2365 12.5725C74.628 12.5942 74.0213 12.4945 73.4517 12.2793C72.8821 12.0641 72.3611 11.7377 71.919 11.319C71.4768 10.9004 71.1224 10.3979 70.8765 9.84095C70.6306 9.28396 70.498 8.68358 70.4864 8.07482C70.4749 7.46605 70.5846 6.86108 70.8093 6.29517C71.034 5.72927 71.369 5.21374 71.795 4.77866C72.2209 4.34357 72.7292 3.99764 73.2902 3.76101C73.8513 3.52438 74.4537 3.40179 75.0626 3.4004C75.6563 3.39932 76.2441 3.51865 76.7904 3.7512C77.3367 3.98374 77.8302 4.32465 78.241 4.75333C78.6517 5.18201 78.9713 5.68956 79.1804 6.24526C79.3894 6.80096 79.4836 7.39328 79.4573 7.98642C79.4558 8.29521 79.4267 8.60325 79.3703 8.90685H72.8215C72.9708 9.42469 73.2988 9.87287 73.7472 10.1719C74.1955 10.4709 74.7353 10.6014 75.2708 10.5402ZM77.2168 7.17046C77.1313 6.66676 76.8657 6.2113 76.4694 5.8888C76.0731 5.5663 75.5732 5.39873 75.0626 5.41728C74.5346 5.38105 74.0116 5.53938 73.5924 5.86238C73.1732 6.18538 72.8867 6.65069 72.7871 7.17046H77.2168Z" fill="white"/>
<path d="M86.2508 12.3291L83.0893 8.38445V12.3291H80.8481V3.64355H83.0893V7.46476L86.0777 3.64355H88.7528L85.261 7.93373L88.8565 12.3284L86.2508 12.3291Z" fill="white"/>
<path d="M99.0885 7.98653C99.114 8.56644 99.0243 9.14567 98.8247 9.69075C98.6251 10.2358 98.3195 10.736 97.9256 11.1623C97.5317 11.5887 97.0573 11.9328 96.5297 12.1749C96.0021 12.4169 95.4318 12.5521 94.8517 12.5726C94.3156 12.6002 93.7806 12.4996 93.2913 12.279C92.8019 12.0585 92.3722 11.7244 92.0378 11.3044V15.8036H89.7966V3.64374H92.0378V4.66645C92.3721 4.24648 92.8018 3.91233 93.2912 3.69178C93.7806 3.47122 94.3156 3.3706 94.8517 3.39829C95.432 3.41876 96.0024 3.554 96.5302 3.79618C97.058 4.03836 97.5325 4.38269 97.9264 4.8093C98.3204 5.2359 98.6259 5.73632 98.8253 6.28165C99.0248 6.82699 99.1143 7.40643 99.0885 7.98653ZM96.8474 7.98653C96.8389 7.51292 96.6908 7.05236 96.4217 6.66255C96.1526 6.27274 95.7744 5.97104 95.3345 5.79525C94.8946 5.61945 94.4127 5.57738 93.949 5.67433C93.4854 5.77128 93.0606 6.00292 92.7281 6.34022C92.3955 6.67752 92.1699 7.10549 92.0795 7.57047C91.9891 8.03545 92.0379 8.51677 92.2199 8.9541C92.4019 9.39144 92.7089 9.76532 93.1025 10.0289C93.4961 10.2925 93.9587 10.4341 94.4323 10.4359C94.7555 10.4471 95.0774 10.3911 95.3778 10.2715C95.6782 10.1519 95.9505 9.97135 96.1776 9.74116C96.4046 9.51096 96.5814 9.23617 96.6968 8.93415C96.8122 8.63214 96.8637 8.30946 96.8481 7.98653H96.8474Z" fill="white"/>
<path d="M104.84 10.5396C105.21 10.5535 105.577 10.4825 105.914 10.3319C106.252 10.1813 106.55 9.95515 106.786 9.67101L108.592 10.7127C108.168 11.3154 107.598 11.8016 106.936 12.1264C106.274 12.4513 105.541 12.6045 104.805 12.5718C104.196 12.5935 103.589 12.4938 103.02 12.2786C102.45 12.0634 101.929 11.7369 101.487 11.3183C101.045 10.8996 100.69 10.3971 100.445 9.84006C100.199 9.28302 100.066 8.68259 100.055 8.07379C100.043 7.46499 100.153 6.86 100.378 6.29409C100.602 5.72817 100.937 5.21265 101.364 4.77759C101.79 4.34253 102.298 3.99664 102.859 3.76007C103.42 3.52351 104.023 3.40102 104.632 3.39973C105.226 3.39825 105.814 3.51732 106.36 3.74973C106.907 3.98214 107.401 4.32306 107.812 4.75186C108.223 5.18066 108.543 5.68843 108.752 6.24442C108.961 6.8004 109.056 7.39305 109.029 7.98649C109.028 8.29528 108.999 8.60332 108.942 8.90692H102.393C102.543 9.42421 102.87 9.87193 103.318 10.1708C103.766 10.4696 104.305 10.6002 104.84 10.5396ZM101.699 1.5589C101.703 1.24662 101.828 0.948038 102.049 0.727216C102.27 0.506393 102.568 0.380918 102.881 0.377686C103.191 0.381533 103.488 0.507744 103.706 0.72891C103.924 0.950076 104.046 1.24834 104.045 1.5589C104.045 1.86772 103.922 2.16389 103.704 2.38226C103.486 2.60063 103.189 2.7233 102.881 2.7233C102.569 2.72467 102.27 2.60306 102.049 2.38496C101.827 2.16686 101.7 1.86994 101.696 1.5589H101.699ZM106.789 7.16982C106.704 6.66618 106.438 6.2108 106.042 5.88833C105.646 5.56586 105.146 5.39825 104.635 5.41664C104.107 5.3804 103.584 5.53874 103.165 5.86174C102.746 6.18474 102.459 6.65005 102.36 7.16982H106.789ZM105 1.5589C105.003 1.24662 105.128 0.948038 105.349 0.727216C105.57 0.506393 105.869 0.380918 106.181 0.377686C106.491 0.381533 106.788 0.507744 107.006 0.72891C107.224 0.950076 107.346 1.24834 107.345 1.5589C107.345 1.86772 107.223 2.16389 107.004 2.38226C106.786 2.60063 106.49 2.7233 106.181 2.7233C105.87 2.72467 105.571 2.60306 105.349 2.38496C105.127 2.16686 105.001 1.86994 104.997 1.5589H105Z" fill="white"/>
<path d="M109.896 7.98636C109.882 7.38034 109.992 6.77782 110.217 6.21519C110.443 5.65255 110.78 5.1415 111.209 4.71287C111.637 4.28424 112.148 3.94694 112.711 3.72135C113.274 3.49576 113.876 3.38655 114.482 3.40033C115.273 3.38697 116.052 3.58835 116.738 3.98302C117.423 4.37769 117.988 4.95086 118.374 5.64148L116.445 6.77081C116.259 6.40933 115.974 6.10806 115.624 5.90206C115.273 5.69606 114.872 5.5938 114.465 5.60715C113.836 5.60715 113.233 5.85695 112.789 6.30164C112.344 6.74632 112.094 7.34945 112.094 7.97833C112.094 8.60721 112.344 9.21032 112.789 9.655C113.233 10.0997 113.836 10.3495 114.465 10.3495C114.873 10.3686 115.277 10.2708 115.631 10.0678C115.985 9.86473 116.273 9.56483 116.463 9.20337L118.408 10.3152C117.9 11.1817 117.12 11.8566 116.189 12.2354C115.259 12.6143 114.229 12.6759 113.26 12.4109C112.291 12.1458 111.437 11.5688 110.828 10.7692C110.22 9.96949 109.893 8.99172 109.896 7.98709V7.98636Z" fill="white"/>
<path d="M126.676 5.79705H123.966V12.3284H121.725V5.79705H118.98V3.64355H126.676L126.676 5.79705Z" fill="white"/>
<path d="M126.903 7.98637C126.901 7.07686 127.169 6.18731 127.673 5.43036C128.178 4.6734 128.895 4.0831 129.735 3.73425C130.575 3.38539 131.5 3.29367 132.392 3.47068C133.284 3.64769 134.103 4.08548 134.747 4.7286C135.39 5.37172 135.828 6.19125 136.005 7.08337C136.182 7.97549 136.09 8.90007 135.741 9.74002C135.392 10.58 134.802 11.2975 134.045 11.8017C133.288 12.3059 132.398 12.5742 131.489 12.5724C130.885 12.5789 130.285 12.4646 129.726 12.2365C129.167 12.0083 128.659 11.6707 128.232 11.2436C127.804 10.8164 127.467 10.3083 127.239 9.74898C127.011 9.18966 126.896 8.59041 126.903 7.98637ZM133.851 7.98637C133.843 7.52296 133.698 7.07232 133.435 6.69093C133.171 6.30954 132.801 6.01437 132.371 5.84242C131.94 5.67046 131.469 5.62936 131.015 5.72429C130.561 5.81921 130.146 6.04593 129.82 6.37602C129.495 6.70611 129.274 7.12489 129.186 7.57988C129.098 8.03487 129.146 8.50582 129.324 8.93371C129.502 9.36159 129.802 9.72736 130.187 9.98519C130.573 10.243 131.025 10.3815 131.489 10.3831C131.804 10.3905 132.117 10.3333 132.41 10.2151C132.702 10.0968 132.967 9.91994 133.188 9.69541C133.409 9.47088 133.582 9.20342 133.696 8.9095C133.811 8.61558 133.863 8.30141 133.851 7.98637Z" fill="white"/>
<path d="M142.903 12.3291L139.741 8.38445V12.3291H137.5V3.64355H139.741V7.46476L142.729 3.64355H145.404L141.913 7.93373L145.509 12.3284L142.903 12.3291Z" fill="white"/>
<path d="M23.0075 28.9186H5.92281C4.37505 28.917 2.89116 28.3016 1.79666 27.2072C0.702162 26.1128 0.0864878 24.629 0.0847473 23.0812V5.99578C0.0862944 4.44789 0.701963 2.9638 1.79648 1.86927C2.89101 0.774752 4.37492 0.159262 5.92281 0.157715H23.0075C24.5554 0.159262 26.0395 0.774752 27.1341 1.86927C28.2286 2.9638 28.8442 4.44789 28.8458 5.99578V23.0812C28.844 24.629 28.2284 26.1128 27.1339 27.2072C26.0394 28.3016 24.5553 28.917 23.0075 28.9186ZM8.47954 16.3067L4.12065 20.6684C3.43039 21.3652 2.91524 22.2156 2.61722 23.1501C2.3192 24.0845 2.24685 25.0763 2.40624 26.044C2.83746 26.5568 3.37564 26.9692 3.98297 27.2521C4.59031 27.535 5.2521 27.6818 5.9221 27.6819H14.0467C14.5919 26.5308 14.7683 25.2394 14.5519 23.9842C14.3356 22.729 13.7368 21.5713 12.8377 20.6691L8.47954 16.3074V16.3067ZM18.9622 8.36988C18.152 8.36776 17.3495 8.52643 16.6011 8.83678C15.8527 9.14714 15.1735 9.60289 14.6026 10.1777L10.2437 14.5388L14.6026 18.9014C15.1737 19.4759 15.853 19.9314 16.6013 20.2416C17.3496 20.5519 18.1521 20.7105 18.9622 20.7086C19.7721 20.7106 20.5743 20.5519 21.3224 20.2416C22.0705 19.9314 22.7496 19.4759 23.3204 18.9014C24.4757 17.7436 25.1245 16.1749 25.1245 14.5393C25.1245 12.9037 24.4757 11.3348 23.3204 10.177C22.7498 9.60238 22.0707 9.14684 21.3227 8.83661C20.5747 8.52637 19.7727 8.36771 18.9629 8.36988H18.9622ZM1.32156 9.35166V19.7246C1.69515 19.4883 2.04142 19.2114 2.35434 18.8991L6.71394 14.5381L2.35434 10.1756C2.04127 9.86371 1.69502 9.58721 1.32156 9.35095V9.35166ZM5.92352 1.39435C5.25313 1.39431 4.59097 1.54097 3.98333 1.82415C3.37569 2.10734 2.83735 2.52011 2.40624 3.0335C2.24764 4.00149 2.32041 4.99337 2.61865 5.92783C2.91689 6.86229 3.43222 7.71287 4.12226 8.41001L8.48025 12.7725L12.8398 8.41001C13.7381 7.50726 14.3358 6.34936 14.5514 5.09425C14.767 3.83915 14.5901 2.54794 14.0446 1.3972L5.92352 1.39435Z" fill="white"/>
</svg>
