<svg xmlns="http://www.w3.org/2000/svg" width="261" height="39.361" viewBox="0 0 261 39.361">
  <g id="samokat" transform="translate(-150.794 -81.645)">
    <g id="Group_13063" data-name="Group 13063" transform="translate(151.294 82.145)">
      <path id="Path_14050" data-name="Path 14050" d="M965.523-9042.689H957A21.312,21.312,0,0,1,978.315-9064a21.309,21.309,0,0,1,21.3,20.832c0,.162.008.322.008.479s0,.322-.008.479a17.049,17.049,0,0,1-17.042,16.572A17.052,17.052,0,0,1,965.523-9042.689Zm8.527,0a8.524,8.524,0,0,0,8.527,8.523,8.524,8.524,0,0,0,8.523-8.523,8.523,8.523,0,0,0-8.523-8.521A8.524,8.524,0,0,0,974.05-9042.689Zm190.086,0v-.008c0-7.369,5.381-13.359,12-13.359,3.589,0,6.023,1.359,7.292,2.881.248.3.558.664.558.664l.031-2.973h6.528v25.584h-6.528l-.031-2.973s-.31.365-.558.664c-1.269,1.521-3.7,2.881-7.292,2.881C1169.517-9029.324,1164.136-9035.316,1164.136-9042.686Zm6.608-.008,0,0,0,0c0,4.377,2.84,7.758,6.906,7.758s6.753-3.381,6.753-7.758v-.008c0-4.375-2.683-7.758-6.753-7.758S1170.744-9047.068,1170.744-9042.693Zm-63.275,0a13.433,13.433,0,0,1,13.464-13.361,13.433,13.433,0,0,1,13.468,13.361,13.276,13.276,0,0,1-13.468,13.365A13.275,13.275,0,0,1,1107.469-9042.689Zm6.612,0c0,4.217,2.882,7.76,6.853,7.76,3.944,0,6.8-3.543,6.8-7.76,0-4.146-2.924-7.758-6.8-7.758C1116.962-9050.447,1114.08-9046.9,1114.08-9042.689Zm-72.2,0v-.008c0-7.369,5.385-13.359,12-13.359,3.589,0,6.02,1.359,7.292,2.881.248.3.554.664.554.664l.034-2.973h6.528v25.584h-6.528l-.034-2.973s-.306.365-.554.664c-1.273,1.521-3.7,2.881-7.292,2.881C1047.262-9029.324,1041.877-9035.316,1041.877-9042.686Zm6.612-.008v.008c0,4.377,2.84,7.758,6.906,7.758s6.75-3.381,6.75-7.758v-.008c0-4.375-2.683-7.758-6.75-7.758S1048.489-9047.068,1048.489-9042.693Zm-36.079,0a13.121,13.121,0,0,1,13.469-13.361c6.421,0,11.175,3.715,12.792,9.965h-6.62c-1.2-2.674-3.329-4.361-6.172-4.361-4.036,0-6.857,3.355-6.857,7.758s2.821,7.76,6.857,7.76c2.843,0,4.972-1.686,6.172-4.361h6.62c-1.617,6.248-6.371,9.967-12.792,9.967A13.122,13.122,0,0,1,1012.41-9042.689Zm190.312,12.785v-20.064H1195v-5.5h22v5.5h-7.717v20.064Zm-46.837,0-10.392-11.047v11.047h-6.559v-25.568h6.559v11.227l9.3-11.227h7.728l-10.64,12.59,12.368,12.979Zm-59.549,0v-15.713l-7.8,10.033-7.85-10.029v15.709h-6.558v-25.568h5.618l8.737,11.225,8.79-11.225h5.618v25.568Z" transform="translate(-957 9064)" fill="#fff" stroke="rgba(0,0,0,0)" stroke-width="1"/>
    </g>
  </g>
</svg>
