<svg width="146" height="19" viewBox="0 0 146 19" fill="none" xmlns="http://www.w3.org/2000/svg">
<path d="M86.0111 6.86235L82.3256 12.898H81.2934L77.5247 6.94336V15.3974H75.4799V4.03882H78.0678L81.8688 10.2207L85.6375 4.03882H88.062V15.3974H86.0141V6.86235H86.0111ZM96.6436 4.03882L101.36 15.3974H99.1843L98.0861 12.7044H92.8276L91.7467 15.3974H89.6665L94.3174 4.03957H96.6428L96.6436 4.03882ZM93.5635 10.8373H97.3315L95.4471 6.18047L93.5635 10.8373ZM105.032 11.859V15.3974H102.984V4.03882H106.801C110.421 4.03882 111.961 5.32081 111.961 7.88404C111.961 10.5298 110.161 11.8598 106.801 11.8598H105.032V11.859ZM105.032 5.90442V9.99643H106.948C108.848 9.99643 109.831 9.37982 109.831 7.83753C109.831 6.44227 108.98 5.90742 106.981 5.90742L105.032 5.90442ZM116.269 15.3974H114.221V4.03882H116.269V8.80821H117.989L121.675 4.03882H124.165L119.791 9.43983L124.871 15.3944H122.25L118.088 10.4803H116.269V15.3974ZM133.815 10.4818H128.54V13.5326H134.601V15.3974H126.489V4.03882H134.418V5.90517H128.537V8.61468H133.812V10.4803L133.815 10.4818ZM145.561 5.90592H141.695V15.3974H139.647V5.90442H135.846V4.03882H145.561V5.90592Z" fill="#FECB00"/>
<path d="M55.7033 5.6722L58.2965 3.79685H49.6159V15.0692H58.2957V13.1939H52.0936V10.3058H57.3858V8.43047H52.0928V5.67295L55.7033 5.6722ZM43.0641 8.19192H40.0501V5.6722H44.8622L47.4555 3.79685H37.5731V15.0692H42.7446C45.6461 15.0692 47.3099 13.7782 47.3099 11.5278C47.3107 9.37565 45.8029 8.19192 43.0641 8.19192ZM42.6328 13.1939H40.0501V10.0673H42.6336C44.2089 10.0673 44.938 10.5924 44.938 11.6298C44.938 12.6928 44.1631 13.1916 42.6336 13.1916L42.6328 13.1939ZM65.3283 3.79535H60.6024V15.0692H63.0779V11.8759H65.3283C68.3446 11.8759 70.2177 10.3186 70.2177 7.82961C70.2177 5.34064 68.3424 3.79535 65.3291 3.79535H65.3283ZM65.2758 9.99826H63.0801V5.6722H65.2758C66.8631 5.6722 67.737 6.44035 67.737 7.83486C67.737 9.22937 66.8631 9.99901 65.2758 9.99901V9.99826ZM33.3198 12.6238C32.6616 12.9731 31.927 13.1535 31.1819 13.1489C30.6801 13.1747 30.1784 13.0972 29.7078 12.921C29.2372 12.7448 28.8079 12.4738 28.4465 12.1248C28.085 11.7757 27.7992 11.3561 27.6068 10.8919C27.4143 10.4278 27.3193 9.92905 27.3277 9.42666C27.3199 8.92457 27.4154 8.42625 27.6082 7.96258C27.801 7.49892 28.0869 7.07981 28.4484 6.73123C28.8098 6.38265 29.239 6.11205 29.7094 5.9362C30.1797 5.76035 30.6812 5.68301 31.1827 5.70896C31.9869 5.69769 32.7743 5.93994 33.4331 6.40134L35.2124 5.11635L35.0946 5.01508C33.9686 4.08837 32.5444 3.60192 31.0866 3.64607C29.4725 3.60705 27.9032 4.17937 26.6931 5.24837C26.1329 5.77649 25.6889 6.41564 25.3897 7.125C25.0904 7.83436 24.9424 8.59834 24.955 9.36814C24.9445 10.1461 25.0926 10.918 25.3904 11.6368C25.6882 12.3556 26.1294 13.0061 26.6871 13.5487C27.8773 14.6512 29.4488 15.249 31.0709 15.2162C31.8835 15.2443 32.6933 15.1058 33.4503 14.809C34.2074 14.5123 34.8956 14.0637 35.4727 13.4909L33.8689 12.332L33.3198 12.6238Z" fill="white"/>
<path d="M17.2262 3.70361C17.6784 4.27776 18.0618 4.90289 18.3687 5.56621L9.67828 11.8569L6.04535 9.62147V6.93297L9.67753 9.16839L17.2269 3.70511L17.2262 3.70361Z" fill="white"/>
<path d="M2.34202 9.43171C2.34202 9.31094 2.34202 9.19092 2.35102 9.07164L0.15011 8.96362C0.142608 9.1189 0.138107 9.27493 0.138107 9.43171C0.138271 10.6664 0.385592 11.8885 0.865492 13.0261C1.34539 14.1637 2.04816 15.1937 2.93238 16.0555L4.49267 14.5229C3.81279 13.8606 3.27227 13.069 2.90293 12.1946C2.53358 11.3203 2.34287 10.3809 2.34202 9.43171Z" fill="white"/>
<path d="M9.67684 2.22826C9.79986 2.22826 9.92139 2.23276 10.0437 2.23876L10.1532 0.076859C8.826 0.00733649 7.49886 0.214279 6.25585 0.684569C5.01285 1.15486 3.8811 1.87824 2.93233 2.80887L4.49262 4.33916C5.87617 2.98209 7.73809 2.22384 9.67609 2.22826H9.67684Z" fill="white"/>
<path d="M9.67521 16.6361C9.55268 16.6361 9.43041 16.6331 9.30839 16.6271L9.19887 18.7882C10.5262 18.8578 11.8535 18.6508 13.0967 18.1803C14.3398 17.7099 15.4717 16.9863 16.4205 16.0555L14.8594 14.5237C13.4755 15.8807 11.6135 16.6392 9.67521 16.6353V16.6361Z" fill="white"/>
<path d="M13.8123 3.4854L15.6652 2.14265C13.9618 0.791421 11.8503 0.0583084 9.67606 0.0632573V2.22966C11.1492 2.22629 12.5897 2.66361 13.8123 3.4854Z" fill="white"/>
<path d="M19.2163 9.43272C19.2175 8.86972 19.1672 8.30778 19.0663 7.75391L17.0131 9.23993C17.0131 9.3037 17.0131 9.36821 17.0131 9.43272C17.0117 10.4431 16.7955 11.4416 16.3788 12.362C15.9621 13.2825 15.3545 14.1038 14.5962 14.7715L16.077 16.376C17.0624 15.5073 17.8519 14.4389 18.3931 13.2419C18.9344 12.0449 19.215 10.7464 19.2163 9.43272Z" fill="white"/>
<path d="M9.67757 16.6361C8.65641 16.6383 7.64592 16.4284 6.71004 16.0199C5.77416 15.6113 4.93326 15.013 4.24055 14.2627L2.60374 15.7165C3.50509 16.6922 4.59925 17.4701 5.81692 18.001C7.03459 18.5318 8.34923 18.804 9.67757 18.8003V16.6361Z" fill="white"/>
<path d="M4.75815 4.0924L3.27662 2.4856C2.29066 3.35474 1.50084 4.42366 0.959592 5.62139C0.41834 6.81913 0.138036 8.11829 0.137283 9.43265H2.3412C2.34281 8.42221 2.55912 7.42365 2.9758 6.50313C3.39248 5.58261 4.00001 4.76114 4.75815 4.09315V4.0924Z" fill="white"/>
</svg>
