<svg width="146" height="37" viewBox="0 0 146 37" fill="none" xmlns="http://www.w3.org/2000/svg">
<path d="M33.5056 3.98536C33.5047 2.93586 33.0873 1.92961 32.3452 1.18757C31.603 0.445523 30.5967 0.0283294 29.5472 0.0275879L4.09505 0.0275879C3.04567 0.0285148 2.03954 0.445791 1.29751 1.18782C0.555486 1.92984 0.13821 2.93598 0.137283 3.98536L0.137283 19.8521C0.137283 24.2771 1.89508 28.5208 5.02397 31.6496C8.15285 34.7785 12.3965 36.5363 16.8215 36.5363C21.2464 36.5363 25.4901 34.7785 28.619 31.6496C31.7478 28.5208 33.5056 24.2771 33.5056 19.8521V3.98536Z" fill="#FEC800"/>
<path d="M15.7289 24.2679C15.7249 23.8517 15.5559 23.4541 15.2592 23.1622C14.9625 22.8703 14.5622 22.708 14.146 22.7108C13.7319 22.7108 13.3348 22.8753 13.042 23.1681C12.7492 23.4609 12.5847 23.858 12.5847 24.2721C12.5847 24.6862 12.7492 25.0833 13.042 25.3761C13.3348 25.6689 13.7319 25.8334 14.146 25.8334C14.563 25.8343 14.9636 25.6702 15.2601 25.3769C15.5567 25.0836 15.7252 24.685 15.7289 24.2679ZM21.2963 24.2679C21.2972 23.9569 21.2058 23.6526 21.0336 23.3936C20.8615 23.1346 20.6163 22.9326 20.3291 22.8131C20.042 22.6936 19.7258 22.6621 19.4207 22.7226C19.1157 22.783 18.8354 22.9327 18.6155 23.1526C18.3956 23.3725 18.2459 23.6528 18.1855 23.9578C18.125 24.2629 18.1565 24.5791 18.276 24.8662C18.3955 25.1534 18.5975 25.3986 18.8565 25.5707C19.1155 25.7429 19.4198 25.8343 19.7308 25.8334C20.1451 25.8317 20.542 25.6661 20.8347 25.3728C21.1273 25.0795 21.292 24.6822 21.2928 24.2679H21.2963Z" fill="black"/>
<path d="M121.162 31.6463V25.5063C121.158 25.4668 121.161 25.4269 121.173 25.389C121.185 25.3511 121.205 25.3162 121.231 25.2866C121.258 25.257 121.291 25.2334 121.327 25.2173C121.364 25.2013 121.402 25.1931 121.442 25.1933C121.482 25.1931 121.521 25.2013 121.558 25.2173C121.594 25.2334 121.626 25.257 121.653 25.2866C121.679 25.3162 121.699 25.3511 121.711 25.389C121.723 25.4269 121.727 25.4668 121.722 25.5063V26.2981C121.849 25.931 122.09 25.6147 122.412 25.3967C122.733 25.1788 123.116 25.0708 123.504 25.089C124.777 25.0974 125.395 26.0727 125.395 27.4463C125.395 28.8718 124.709 30.0984 123.088 30.0984C122.615 30.1138 122.146 30.0092 121.724 29.7945V31.6463C121.729 31.6859 121.726 31.7261 121.714 31.7643C121.703 31.8025 121.683 31.8378 121.657 31.8678C121.63 31.8978 121.598 31.9219 121.562 31.9384C121.525 31.9548 121.486 31.9634 121.446 31.9634C121.406 31.9634 121.367 31.9548 121.331 31.9384C121.294 31.9219 121.262 31.8978 121.236 31.8678C121.209 31.8378 121.19 31.8025 121.178 31.7643C121.167 31.7261 121.163 31.6859 121.169 31.6463H121.162ZM121.718 28.2816V29.2477C122.136 29.4844 122.61 29.6017 123.09 29.5866C124.398 29.5866 124.822 28.5854 124.822 27.4463C124.822 26.3772 124.414 25.6029 123.43 25.6029C121.998 25.6029 121.718 27.0613 121.718 28.2816ZM104.451 31.6463V25.5063C104.446 25.4668 104.449 25.4269 104.461 25.389C104.473 25.3511 104.493 25.3162 104.52 25.2866C104.546 25.257 104.579 25.2334 104.615 25.2173C104.652 25.2013 104.691 25.1931 104.731 25.1933C104.771 25.1931 104.809 25.2013 104.846 25.2173C104.882 25.2334 104.915 25.257 104.941 25.2866C104.968 25.3162 104.988 25.3511 105 25.389C105.011 25.4269 105.015 25.4668 105.01 25.5063V26.2981C105.136 25.9308 105.378 25.6142 105.7 25.3962C106.021 25.1781 106.404 25.0703 106.792 25.089C108.065 25.0974 108.683 26.0727 108.683 27.4463C108.683 28.8718 107.997 30.0984 106.376 30.0984C105.903 30.114 105.433 30.0094 105.012 29.7945V31.6463C105.012 31.6831 105.005 31.7195 104.991 31.7535C104.977 31.7875 104.956 31.8184 104.93 31.8444C104.904 31.8704 104.873 31.891 104.839 31.9051C104.805 31.9191 104.769 31.9264 104.732 31.9264C104.695 31.9264 104.659 31.9191 104.625 31.9051C104.591 31.891 104.56 31.8704 104.534 31.8444C104.508 31.8184 104.487 31.7875 104.473 31.7535C104.459 31.7195 104.452 31.6831 104.452 31.6463H104.451ZM105.01 28.2816V29.2477C105.428 29.4854 105.903 29.6027 106.383 29.5866C107.688 29.5866 108.116 28.5854 108.116 27.4463C108.116 26.3772 107.707 25.6029 106.723 25.6029C105.277 25.6029 105.008 27.0613 105.008 28.2816H105.01ZM46.7119 27.6018C46.744 27.147 46.9077 26.7115 47.1837 26.3487C47.4597 25.986 47.8356 25.7116 48.2653 25.5594C48.695 25.4072 49.1598 25.3838 49.6027 25.492C50.0455 25.6002 50.447 25.8353 50.7581 26.1684C51.0692 26.5016 51.2767 26.9184 51.3543 27.3675C51.432 27.8167 51.3763 28.2788 51.195 28.6971C51.0138 29.1154 50.7144 29.4716 50.3335 29.7222C49.9527 29.9727 49.5074 30.1066 49.0516 30.1075C48.7276 30.1163 48.4051 30.0561 48.106 29.9311C47.8069 29.8061 47.5377 29.619 47.3163 29.3822C47.095 29.1454 46.9267 28.8643 46.822 28.5575C46.7174 28.2507 46.6793 27.9252 46.7099 27.6025L46.7119 27.6018ZM47.2842 27.5934C47.2842 28.8137 47.944 29.5873 49.0509 29.5873C50.1459 29.5873 50.8169 28.813 50.8169 27.5934C50.8169 26.3738 50.1459 25.6036 49.0509 25.6036C47.9559 25.6036 47.2828 26.3772 47.2828 27.5927L47.2842 27.5934ZM131.089 27.6284C131.089 26.1854 131.907 25.0988 133.324 25.0988C133.573 25.0827 133.822 25.1197 134.056 25.2074C134.289 25.2951 134.502 25.4314 134.679 25.6074C134.856 25.7833 134.993 25.9949 135.082 26.2281C135.171 26.4612 135.21 26.7106 135.195 26.9598C135.196 27.1002 135.187 27.2405 135.169 27.3798C135.171 27.4471 135.159 27.5141 135.133 27.5762C135.107 27.6383 135.067 27.694 135.018 27.7395C134.968 27.785 134.91 27.8192 134.845 27.8398C134.781 27.8604 134.713 27.8668 134.647 27.8587H131.646C131.631 28.0878 131.664 28.3176 131.744 28.533C131.823 28.7483 131.948 28.9444 132.109 29.1081C132.27 29.2717 132.463 29.3993 132.677 29.4824C132.892 29.5655 133.121 29.6022 133.35 29.5901C133.774 29.5931 134.192 29.4916 134.567 29.2946C134.742 29.2071 134.883 29.2071 134.96 29.345C134.992 29.4102 134.999 29.4852 134.978 29.5549C134.957 29.6247 134.911 29.684 134.848 29.721C134.397 29.9834 133.881 30.115 133.359 30.1012C131.826 30.0984 131.086 29.1602 131.086 27.6276L131.089 27.6284ZM131.648 27.3679H134.659C134.673 27.2438 134.679 27.1189 134.677 26.994C134.692 26.8073 134.667 26.6194 134.603 26.4435C134.538 26.2675 134.436 26.1078 134.303 25.9754C134.171 25.843 134.011 25.7411 133.835 25.6769C133.659 25.6127 133.471 25.5877 133.284 25.6036C132.33 25.6029 131.721 26.2281 131.644 27.3672L131.648 27.3679ZM99.0232 27.6284C99.0232 26.1854 99.8432 25.0988 101.264 25.0988C101.512 25.0831 101.761 25.1204 101.995 25.2083C102.228 25.2962 102.44 25.4326 102.616 25.6085C102.793 25.7845 102.93 25.9959 103.019 26.2289C103.107 26.4618 103.146 26.7109 103.131 26.9598C103.132 27.1002 103.123 27.2406 103.104 27.3798C103.107 27.447 103.095 27.514 103.069 27.5761C103.043 27.6382 103.004 27.6939 102.955 27.7395C102.905 27.785 102.846 27.8192 102.782 27.8398C102.718 27.8604 102.651 27.8669 102.584 27.8587H99.5818C99.5663 28.0879 99.5997 28.3178 99.6796 28.5332C99.7595 28.7485 99.8841 28.9445 100.045 29.1082C100.207 29.2718 100.401 29.3994 100.615 29.4824C100.829 29.5655 101.059 29.6022 101.288 29.5901C101.712 29.5908 102.129 29.4895 102.505 29.2946C102.678 29.2071 102.818 29.2071 102.897 29.345C102.93 29.4104 102.936 29.4857 102.915 29.5555C102.894 29.6254 102.847 29.6846 102.784 29.721C102.333 29.9832 101.818 30.1149 101.297 30.1012C99.7633 30.0984 99.0219 29.1602 99.0219 27.6276L99.0232 27.6284ZM99.5832 27.3679H102.594C102.61 27.244 102.616 27.119 102.613 26.994C102.629 26.8073 102.603 26.6194 102.539 26.4436C102.474 26.2677 102.372 26.108 102.239 25.9756C102.107 25.8433 101.947 25.7414 101.771 25.6772C101.595 25.6129 101.407 25.5878 101.22 25.6036C100.268 25.6029 99.6575 26.2281 99.5791 27.3672L99.5832 27.3679ZM115.763 28.6554C115.763 27.3854 116.911 27.0375 117.933 27.0375C118.364 27.0396 118.795 27.0709 119.221 27.1313V26.8512C119.241 26.6761 119.22 26.4987 119.161 26.3329C119.101 26.167 119.004 26.0171 118.877 25.8946C118.751 25.7721 118.597 25.6803 118.43 25.6264C118.262 25.5724 118.084 25.5577 117.909 25.5833C117.482 25.5925 117.061 25.6877 116.672 25.8634C116.508 25.9509 116.307 25.9859 116.237 25.8199C116.159 25.6295 116.254 25.5245 116.403 25.4461C116.892 25.2179 117.423 25.0964 117.962 25.0897C119.249 25.0897 119.779 25.7499 119.779 26.8281V29.6839C119.783 29.7231 119.779 29.7628 119.767 29.8003C119.755 29.8379 119.735 29.8724 119.708 29.9017C119.682 29.931 119.649 29.9543 119.613 29.9703C119.577 29.9862 119.538 29.9943 119.499 29.9941C119.46 29.9943 119.42 29.9862 119.384 29.9703C119.348 29.9543 119.315 29.931 119.289 29.9017C119.263 29.8724 119.243 29.8379 119.231 29.8003C119.219 29.7628 119.214 29.7231 119.219 29.6839V28.9425C119.06 29.3008 118.797 29.6025 118.463 29.8076C118.129 30.0126 117.741 30.1114 117.349 30.0907C116.411 30.09 115.759 29.6132 115.759 28.6526L115.763 28.6554ZM116.335 28.647C116.335 29.2071 116.71 29.5873 117.425 29.5873C117.66 29.5918 117.894 29.5496 118.112 29.4629C118.331 29.3763 118.531 29.247 118.699 29.0826C118.867 28.9183 119.001 28.7221 119.093 28.5054C119.185 28.2888 119.233 28.0561 119.234 27.8209V27.6375C118.834 27.5701 118.429 27.538 118.024 27.5415C117.047 27.5401 116.331 27.8377 116.331 28.6463L116.335 28.647ZM63.1709 28.6554C63.1709 27.3854 64.3188 27.0375 65.341 27.0375C65.7718 27.0396 66.2018 27.0709 66.6284 27.1313V26.8512C66.6481 26.6759 66.6273 26.4983 66.5675 26.3323C66.5078 26.1662 66.4108 26.0162 66.2838 25.8936C66.1568 25.7711 66.0034 25.6794 65.8353 25.6256C65.6672 25.5718 65.4888 25.5573 65.3143 25.5833C64.8886 25.5924 64.4694 25.6877 64.0816 25.8634C63.924 25.9509 63.725 25.9859 63.6549 25.8199C63.5765 25.6295 63.6727 25.5245 63.8211 25.4461C64.3082 25.218 64.8381 25.0966 65.3758 25.0897C66.6641 25.0897 67.1966 25.7499 67.1966 26.8281V29.6839C67.2008 29.7231 67.1964 29.7628 67.1842 29.8003C67.1721 29.8379 67.1526 29.8724 67.1261 29.9017C67.0997 29.931 67.0672 29.9543 67.0311 29.9703C66.995 29.9862 66.9557 29.9943 66.9162 29.9941C66.8768 29.9943 66.8382 29.9862 66.8021 29.9703C66.766 29.9543 66.7335 29.931 66.707 29.9017C66.6806 29.8724 66.6604 29.8379 66.6482 29.8003C66.6361 29.7628 66.6324 29.7231 66.6366 29.6839V28.9425C66.4774 29.3022 66.2119 29.6047 65.8763 29.8099C65.5407 30.015 65.1505 30.113 64.7578 30.0907C63.8224 30.09 63.1675 29.6132 63.1675 28.6526L63.1709 28.6554ZM63.7548 28.647C63.7548 29.2071 64.1263 29.5873 64.8432 29.5873C65.0783 29.5916 65.3119 29.5491 65.5304 29.4623C65.7488 29.3756 65.9482 29.2463 66.1163 29.0819C66.2844 28.9175 66.4178 28.7214 66.5094 28.505C66.601 28.2885 66.6486 28.0559 66.6496 27.8209V27.6375C66.2501 27.5701 65.8459 27.538 65.4408 27.5415C64.4641 27.5401 63.7527 27.8377 63.7527 28.6463L63.7548 28.647ZM57.6109 29.7448C57.639 29.5173 57.7886 29.5264 57.9699 29.5264C58.2387 29.5173 58.4203 29.31 58.5422 29.0125C58.8494 27.8461 58.9986 26.6438 58.9859 25.4377C58.985 25.4038 58.9919 25.3702 59.005 25.339C59.0182 25.3078 59.0376 25.2798 59.0625 25.2568C59.0873 25.2338 59.1165 25.2164 59.1486 25.2057C59.1807 25.195 59.2148 25.1912 59.2484 25.1947H61.6216C61.6619 25.1921 61.7021 25.1981 61.7399 25.2126C61.7776 25.227 61.8121 25.2494 61.8404 25.2782C61.8686 25.3071 61.8903 25.3417 61.904 25.3798C61.9176 25.4178 61.9225 25.4584 61.919 25.4986V29.6923C61.9232 29.7315 61.9189 29.7712 61.9067 29.8087C61.8945 29.8463 61.875 29.8808 61.8486 29.9101C61.8221 29.9394 61.7896 29.9627 61.7535 29.9786C61.7174 29.9946 61.6781 30.0027 61.6387 30.0025C61.5992 30.0027 61.5606 29.9946 61.5245 29.9786C61.4884 29.9627 61.4559 29.9394 61.4295 29.9101C61.403 29.8808 61.3828 29.8463 61.3707 29.8087C61.3585 29.7712 61.3548 29.7315 61.359 29.6923V25.7065H59.4898C59.4882 26.9229 59.3149 28.1329 58.9756 29.3009C58.9146 29.5137 58.7876 29.7015 58.6126 29.8371C58.4376 29.9727 58.224 30.049 58.0027 30.055C57.8018 30.0529 57.583 29.9759 57.6075 29.7441L57.6109 29.7448ZM137.857 29.6923V25.7065H136.281C136.246 25.7096 136.212 25.7053 136.179 25.6939C136.147 25.6824 136.118 25.6642 136.093 25.6403C136.069 25.6165 136.05 25.5876 136.037 25.5556C136.025 25.5237 136.019 25.4894 136.021 25.4552C136.02 25.4211 136.026 25.3872 136.039 25.3555C136.051 25.3239 136.07 25.2953 136.095 25.2716C136.119 25.2479 136.149 25.2296 136.181 25.2179C136.213 25.2063 136.247 25.2015 136.281 25.2038H139.971C140.005 25.2013 140.039 25.2059 140.071 25.2175C140.103 25.2291 140.133 25.2473 140.157 25.271C140.182 25.2947 140.202 25.3234 140.215 25.3551C140.228 25.3869 140.234 25.421 140.232 25.4552C140.234 25.4896 140.229 25.524 140.216 25.5561C140.203 25.5881 140.183 25.6171 140.159 25.6409C140.134 25.6648 140.104 25.683 140.072 25.6943C140.039 25.7056 140.005 25.7098 139.971 25.7065H138.398V29.6923H138.415C138.419 29.7315 138.416 29.7712 138.404 29.8087C138.391 29.8463 138.371 29.8808 138.345 29.9101C138.318 29.9394 138.286 29.9627 138.25 29.9786C138.214 29.9946 138.175 30.0027 138.136 30.0025C138.096 30.0029 138.056 29.9949 138.02 29.9791C137.984 29.9632 137.951 29.9398 137.924 29.9104C137.898 29.881 137.878 29.8463 137.865 29.8086C137.853 29.7709 137.849 29.731 137.854 29.6916L137.857 29.6923ZM126.748 29.6923V25.507C126.745 25.4673 126.751 25.4276 126.765 25.3902C126.778 25.3527 126.799 25.3184 126.826 25.2892C126.853 25.26 126.885 25.2365 126.921 25.2201C126.958 25.2038 126.996 25.1949 127.036 25.194C127.076 25.1938 127.115 25.2019 127.152 25.218C127.188 25.2341 127.22 25.2577 127.247 25.2873C127.273 25.3169 127.294 25.3518 127.306 25.3897C127.318 25.4276 127.321 25.4676 127.316 25.507V27.4113L129.448 25.3229C129.588 25.1828 129.743 25.1499 129.868 25.2703C129.892 25.2998 129.91 25.3338 129.92 25.3703C129.93 25.4069 129.934 25.4451 129.929 25.4827C129.924 25.5204 129.911 25.5567 129.892 25.5894C129.873 25.6221 129.847 25.6505 129.816 25.6729L127.833 27.5317L130.041 29.4921C130.073 29.5153 130.1 29.5447 130.12 29.5786C130.141 29.6124 130.155 29.65 130.161 29.6891C130.166 29.7283 130.164 29.7682 130.154 29.8065C130.144 29.8448 130.127 29.8807 130.103 29.9121C129.979 30.0585 129.79 29.9885 129.651 29.8771L127.311 27.7803V29.6958C127.315 29.735 127.311 29.7747 127.299 29.8122C127.287 29.8498 127.266 29.8843 127.24 29.9136C127.213 29.9429 127.182 29.9662 127.146 29.9822C127.109 29.9981 127.07 30.0062 127.031 30.006C126.99 30.0072 126.95 29.9996 126.913 29.9839C126.876 29.9681 126.843 29.9445 126.815 29.9146C126.788 29.8848 126.767 29.8494 126.755 29.8109C126.743 29.7724 126.739 29.7317 126.744 29.6916L126.748 29.6923ZM113.928 29.6923V26.1413L112.371 28.2907C112.343 28.3381 112.304 28.3774 112.257 28.4048C112.21 28.4322 112.156 28.4466 112.101 28.4466C112.047 28.4466 111.993 28.4322 111.945 28.4048C111.898 28.3774 111.858 28.3381 111.831 28.2907L110.361 26.2197V29.6916C110.361 29.8554 110.291 30.0018 110.108 30.0018C109.924 30.0018 109.857 29.8554 109.857 29.6916V25.5063C109.857 25.3313 109.933 25.1933 110.125 25.1933C110.283 25.1933 110.369 25.2697 110.464 25.4188L112.145 27.7845L113.858 25.4363C113.894 25.3667 113.948 25.3076 114.014 25.265C114.079 25.2224 114.154 25.1977 114.232 25.1933C114.416 25.1933 114.484 25.3488 114.484 25.5063V29.6916C114.489 29.731 114.485 29.7709 114.474 29.8088C114.462 29.8467 114.442 29.8817 114.416 29.9114C114.389 29.9411 114.357 29.9649 114.321 29.9812C114.285 29.9975 114.245 30.0059 114.206 30.0059C114.166 30.0059 114.127 29.9975 114.091 29.9812C114.055 29.9649 114.023 29.9411 113.996 29.9114C113.97 29.8817 113.95 29.8467 113.938 29.8088C113.927 29.7709 113.923 29.731 113.928 29.6916V29.6923ZM97.2859 29.6923V25.7065H94.5559V29.6923C94.5601 29.7315 94.5557 29.7712 94.5436 29.8087C94.5314 29.8463 94.5119 29.8808 94.4854 29.9101C94.459 29.9394 94.4265 29.9627 94.3904 29.9786C94.3543 29.9946 94.315 30.0027 94.2755 30.0025C94.2361 30.0027 94.1975 29.9946 94.1614 29.9786C94.1253 29.9627 94.0928 29.9394 94.0663 29.9101C94.0399 29.8808 94.0197 29.8463 94.0075 29.8087C93.9954 29.7712 93.9917 29.7315 93.9959 29.6923V25.507C93.9914 25.469 93.9946 25.4306 94.0055 25.3939C94.0164 25.3573 94.0343 25.3232 94.0588 25.2939C94.0833 25.2646 94.1135 25.2406 94.1477 25.2234C94.1818 25.2063 94.2196 25.1963 94.2578 25.194H97.5526C97.5925 25.1942 97.6323 25.2026 97.6688 25.2187C97.7053 25.2348 97.7381 25.2583 97.7652 25.2877C97.7923 25.317 97.813 25.3517 97.826 25.3894C97.8391 25.4272 97.8442 25.4672 97.8411 25.507V29.6923C97.8453 29.7315 97.8416 29.7712 97.8295 29.8087C97.8173 29.8463 97.7971 29.8808 97.7707 29.9101C97.7442 29.9394 97.7117 29.9627 97.6756 29.9786C97.6395 29.9946 97.6009 30.0027 97.5615 30.0025C97.5221 30.0024 97.4832 29.9941 97.4473 29.978C97.4114 29.9619 97.3791 29.9384 97.3529 29.9091C97.3267 29.8798 97.3068 29.8452 97.2948 29.8078C97.2828 29.7703 97.2789 29.7307 97.2832 29.6916L97.2859 29.6923ZM91.8484 29.6923V26.1175L88.8989 29.8652C88.8652 29.9091 88.8214 29.9446 88.7717 29.9689C88.722 29.9932 88.6677 30.0056 88.6124 30.0052C88.5729 30.0055 88.5336 29.9974 88.4975 29.9815C88.4614 29.9656 88.4296 29.9422 88.4032 29.9129C88.3767 29.8836 88.3565 29.8491 88.3444 29.8115C88.3322 29.774 88.3278 29.7343 88.3321 29.6951V25.5098C88.3268 25.4702 88.3301 25.43 88.3416 25.3918C88.3532 25.3536 88.3728 25.3184 88.3991 25.2883C88.4254 25.2583 88.4578 25.2343 88.4941 25.2178C88.5304 25.2013 88.5698 25.1928 88.6096 25.1928C88.6495 25.1928 88.6895 25.2013 88.7259 25.2178C88.7622 25.2343 88.7946 25.2583 88.8209 25.2883C88.8472 25.3184 88.8668 25.3536 88.8783 25.3918C88.8899 25.43 88.8925 25.4702 88.8872 25.5098V29.1112L91.8463 25.3355C91.8789 25.292 91.9208 25.2567 91.9694 25.2324C92.018 25.2081 92.0716 25.1954 92.126 25.1954C92.1657 25.1952 92.2052 25.2033 92.2415 25.2194C92.2778 25.2355 92.3107 25.2591 92.3372 25.2887C92.3637 25.3183 92.3834 25.3532 92.3953 25.3911C92.4073 25.429 92.411 25.469 92.4063 25.5084V29.6937C92.4105 29.7329 92.4061 29.7726 92.394 29.8101C92.3818 29.8477 92.3623 29.8822 92.3359 29.9115C92.3094 29.9408 92.2769 29.9641 92.2408 29.9801C92.2047 29.996 92.1654 30.0041 92.126 30.0039C92.0863 30.0042 92.0474 29.9961 92.0111 29.9801C91.9748 29.9641 91.9419 29.9406 91.9154 29.9111C91.8888 29.8815 91.8686 29.8467 91.8566 29.8089C91.8445 29.771 91.8411 29.731 91.8456 29.6916L91.8484 29.6923ZM84.2872 29.6923V25.507C84.2826 25.4676 84.2862 25.4276 84.2982 25.3897C84.3101 25.3518 84.3298 25.3169 84.3563 25.2873C84.3828 25.2577 84.4157 25.2341 84.452 25.218C84.4883 25.2019 84.5272 25.1938 84.5669 25.194H86.9476C86.9816 25.1916 87.016 25.1963 87.0481 25.2079C87.0801 25.2196 87.109 25.2378 87.1335 25.2615C87.158 25.2853 87.1776 25.3139 87.1903 25.3456C87.203 25.3773 87.2087 25.4113 87.2074 25.4454C87.2095 25.4797 87.204 25.5141 87.1916 25.5461C87.1792 25.5782 87.1603 25.6071 87.1356 25.631C87.1109 25.6549 87.0812 25.6732 87.0487 25.6845C87.0163 25.6959 86.9818 25.7 86.9476 25.6967H84.8322V29.6916H84.8397C84.8448 29.7306 84.841 29.7703 84.8294 29.808C84.8179 29.8456 84.7988 29.8803 84.7727 29.9097C84.7465 29.9391 84.7144 29.9626 84.6783 29.9785C84.6423 29.9944 84.6028 30.0023 84.5635 30.0018C84.5242 30.0016 84.4857 29.9932 84.45 29.9771C84.4142 29.961 84.3824 29.9376 84.3563 29.9084C84.3302 29.8791 84.3102 29.8447 84.2982 29.8074C84.2862 29.77 84.2823 29.7306 84.2866 29.6916L84.2872 29.6923ZM77.4782 29.6923V27.7768H74.5895V29.6923C74.5895 29.7291 74.5824 29.7655 74.5683 29.7995C74.5542 29.8335 74.5335 29.8643 74.5075 29.8903C74.4815 29.9163 74.4505 29.937 74.4165 29.951C74.3825 29.9651 74.3466 29.9723 74.3099 29.9723C74.2731 29.9723 74.2365 29.9651 74.2025 29.951C74.1685 29.937 74.1376 29.9163 74.1116 29.8903C74.0856 29.8643 74.0648 29.8335 74.0507 29.7995C74.0367 29.7655 74.0295 29.7291 74.0295 29.6923V25.507C74.0295 25.4702 74.0367 25.4338 74.0507 25.3998C74.0648 25.3658 74.0856 25.335 74.1116 25.309C74.1376 25.283 74.1685 25.2623 74.2025 25.2483C74.2365 25.2342 74.2731 25.227 74.3099 25.227C74.3466 25.227 74.3825 25.2342 74.4165 25.2483C74.4505 25.2623 74.4815 25.283 74.5075 25.309C74.5335 25.335 74.5542 25.3658 74.5683 25.3998C74.5824 25.4338 74.5895 25.4702 74.5895 25.507V27.2629H77.4782V25.507C77.4746 25.4678 77.4795 25.4282 77.4919 25.3908C77.5042 25.3534 77.5244 25.319 77.5506 25.2896C77.5769 25.2603 77.6085 25.2366 77.6443 25.2202C77.6801 25.2037 77.7191 25.1948 77.7585 25.194C77.7982 25.1938 77.8377 25.2019 77.874 25.218C77.9104 25.2341 77.9426 25.2577 77.9691 25.2873C77.9956 25.3169 78.0152 25.3518 78.0272 25.3897C78.0392 25.4276 78.0435 25.4676 78.0388 25.507V29.6923C78.0431 29.7315 78.0387 29.7712 78.0265 29.8087C78.0144 29.8463 77.9942 29.8808 77.9677 29.9101C77.9413 29.9394 77.9095 29.9627 77.8734 29.9786C77.8373 29.9946 77.798 30.0027 77.7585 30.0025C77.7187 30.0032 77.6788 29.9954 77.6423 29.9797C77.6057 29.964 77.5734 29.9406 77.5465 29.9112C77.5197 29.8818 77.4994 29.847 77.4871 29.8091C77.4747 29.7712 77.4704 29.7312 77.4748 29.6916L77.4782 29.6923ZM72.0878 29.6923V26.1175L69.1397 29.8652C69.1054 29.909 69.0618 29.9443 69.0118 29.9686C68.9618 29.9928 68.9074 30.0054 68.8518 30.0052C68.8124 30.0055 68.7731 29.9974 68.737 29.9815C68.7009 29.9656 68.6684 29.9422 68.6419 29.9129C68.6155 29.8836 68.596 29.8491 68.5838 29.8115C68.5716 29.774 68.5673 29.7343 68.5715 29.6951V25.5098C68.5668 25.4704 68.5705 25.4304 68.5824 25.3925C68.5944 25.3546 68.6147 25.3197 68.6412 25.2901C68.6677 25.2605 68.7 25.2369 68.7363 25.2208C68.7726 25.2047 68.8121 25.1966 68.8518 25.1968C68.8915 25.1966 68.9304 25.2047 68.9667 25.2208C69.003 25.2369 69.0359 25.2605 69.0624 25.2901C69.0889 25.3197 69.1085 25.3546 69.1205 25.3925C69.1325 25.4304 69.1361 25.4704 69.1315 25.5098V29.1112L72.0885 25.3355C72.1211 25.292 72.163 25.2567 72.2116 25.2324C72.2602 25.2081 72.3138 25.1954 72.3681 25.1954C72.4078 25.1952 72.4474 25.2033 72.4837 25.2194C72.52 25.2355 72.5522 25.2591 72.5787 25.2887C72.6052 25.3183 72.6255 25.3532 72.6375 25.3911C72.6495 25.429 72.6531 25.469 72.6485 25.5084V29.6937C72.6485 29.7305 72.6413 29.7669 72.6273 29.8009C72.6132 29.8349 72.5924 29.8657 72.5664 29.8917C72.5404 29.9177 72.5095 29.9384 72.4755 29.9524C72.4415 29.9665 72.4049 29.9738 72.3681 29.9738C72.3314 29.9738 72.2948 29.9665 72.2608 29.9524C72.2268 29.9384 72.1965 29.9177 72.1705 29.8917C72.1445 29.8657 72.1238 29.8349 72.1097 29.8009C72.0956 29.7669 72.0885 29.7305 72.0885 29.6937L72.0878 29.6923ZM56.1615 29.6923V27.7768H53.2749V29.6923C53.2791 29.7315 53.2747 29.7712 53.2626 29.8087C53.2504 29.8463 53.2302 29.8808 53.2038 29.9101C53.1773 29.9394 53.1455 29.9627 53.1094 29.9786C53.0733 29.9946 53.034 30.0027 52.9945 30.0025C52.9551 30.0027 52.9158 29.9946 52.8797 29.9786C52.8436 29.9627 52.8118 29.9394 52.7853 29.9101C52.7589 29.8808 52.7387 29.8463 52.7265 29.8087C52.7144 29.7712 52.71 29.7315 52.7142 29.6923V25.507C52.7096 25.4676 52.7139 25.4276 52.7258 25.3897C52.7378 25.3518 52.7575 25.3169 52.784 25.2873C52.8104 25.2577 52.8427 25.2341 52.879 25.218C52.9153 25.2019 52.9548 25.1938 52.9945 25.194C53.0343 25.1938 53.0738 25.2019 53.1101 25.218C53.1464 25.2341 53.1786 25.2577 53.2051 25.2873C53.2316 25.3169 53.2513 25.3518 53.2632 25.3897C53.2752 25.4276 53.2795 25.4676 53.2749 25.507V27.2629H56.1615V25.507C56.1706 25.3411 56.2577 25.194 56.4411 25.194C56.4808 25.1938 56.5204 25.2019 56.5567 25.218C56.593 25.2341 56.6252 25.2577 56.6517 25.2873C56.6782 25.3169 56.6985 25.3518 56.7105 25.3897C56.7225 25.4276 56.7261 25.4676 56.7214 25.507V29.6923C56.7257 29.7315 56.7213 29.7712 56.7091 29.8087C56.697 29.8463 56.6775 29.8808 56.651 29.9101C56.6246 29.9394 56.5921 29.9627 56.556 29.9786C56.5199 29.9946 56.4806 30.0027 56.4411 30.0025C56.4018 30.0023 56.3634 29.9939 56.3276 29.9778C56.2918 29.9616 56.2594 29.9381 56.2333 29.9088C56.2071 29.8795 56.1878 29.845 56.1758 29.8076C56.1639 29.7702 56.1599 29.7306 56.1642 29.6916L56.1615 29.6923ZM79.8828 27.6018C79.848 27.6056 79.8127 27.6019 79.7795 27.5909C79.7464 27.5799 79.7162 27.5618 79.6907 27.538C79.6651 27.5141 79.6444 27.485 79.6312 27.4526C79.618 27.4202 79.6126 27.3853 79.6141 27.3504C79.6131 27.3155 79.6192 27.2808 79.6325 27.2486C79.6459 27.2163 79.6659 27.1872 79.6913 27.1633C79.7167 27.1394 79.7466 27.1211 79.7795 27.1096C79.8125 27.0982 79.848 27.0939 79.8828 27.097H82.4583C82.493 27.0947 82.5275 27.0995 82.5602 27.1112C82.5929 27.1229 82.6231 27.1412 82.6484 27.165C82.6737 27.1888 82.6935 27.2175 82.7072 27.2494C82.7209 27.2813 82.7279 27.3157 82.7277 27.3504C82.7291 27.3854 82.7232 27.4202 82.7099 27.4526C82.6966 27.485 82.6767 27.5141 82.6511 27.538C82.6255 27.5618 82.5948 27.5799 82.5616 27.5909C82.5283 27.6019 82.4931 27.6056 82.4583 27.6018H79.8828ZM70.6336 24.4883C70.3568 24.5057 70.0808 24.4385 69.8432 24.2955C69.6056 24.1526 69.4174 23.9407 69.3031 23.6881C69.2422 23.5397 69.2424 23.3842 69.3796 23.3051C69.5372 23.2176 69.6773 23.3226 69.7536 23.4605C69.8361 23.6253 69.9626 23.7639 70.1194 23.8608C70.2762 23.9576 70.4568 24.0089 70.6411 24.0089C70.8254 24.0089 71.006 23.9576 71.1628 23.8608C71.3195 23.7639 71.446 23.6253 71.5285 23.4605C71.5422 23.4253 71.563 23.3931 71.5894 23.366C71.6158 23.3389 71.6474 23.3175 71.6824 23.3029C71.7173 23.2884 71.7553 23.2811 71.7931 23.2815C71.831 23.2819 71.8679 23.2899 71.9025 23.3051C72.0426 23.3751 72.0428 23.539 71.9791 23.6881C71.8601 23.9371 71.6707 24.1457 71.4342 24.288C71.1977 24.4303 70.9243 24.4999 70.6486 24.4883H70.6336ZM81.5271 17.9485L77.4823 13.7632C77.3827 13.6373 77.2558 13.5357 77.111 13.4663C76.9663 13.3969 76.808 13.3615 76.6475 13.3627C76.5569 13.3562 76.466 13.368 76.3801 13.3976C76.2943 13.4271 76.2151 13.4738 76.1477 13.5347C76.0803 13.5956 76.0257 13.6695 75.9877 13.752C75.9496 13.8344 75.9288 13.9238 75.9262 14.0145V16.8766C75.9175 17.2816 75.7507 17.667 75.4612 17.9504C75.1718 18.2337 74.7833 18.3924 74.3782 18.3924C73.9732 18.3924 73.584 18.2337 73.2946 17.9504C73.0051 17.667 72.8382 17.2816 72.8296 16.8766V6.82083C72.8382 6.41589 73.0051 6.03044 73.2946 5.74711C73.584 5.46377 73.9732 5.30509 74.3782 5.30509C74.7833 5.30509 75.1718 5.46377 75.4612 5.74711C75.7507 6.03044 75.9175 6.41589 75.9262 6.82083V9.51909C75.927 9.61118 75.9464 9.70213 75.9836 9.78638C76.0208 9.87062 76.0754 9.94638 76.1429 10.009C76.2104 10.0717 76.2899 10.1199 76.3767 10.1508C76.4635 10.1816 76.5556 10.1944 76.6475 10.1884C76.8083 10.1917 76.9673 10.1572 77.1124 10.0877C77.2575 10.0181 77.3842 9.91544 77.4823 9.78794L81.4034 5.75174C81.5394 5.60931 81.7027 5.49548 81.8833 5.41692C82.0639 5.33835 82.258 5.29662 82.4549 5.29421C82.6518 5.2918 82.8474 5.32874 83.0299 5.40286C83.2124 5.47698 83.3779 5.58679 83.5174 5.72585C83.8002 6.00127 83.9653 6.37593 83.9768 6.77055C83.9883 7.16518 83.8452 7.54878 83.5789 7.8402L79.7871 11.7609L83.728 15.8321C83.9992 16.1257 84.1441 16.5139 84.1327 16.9136C84.1213 17.3132 83.954 17.6924 83.6664 17.9702C83.5286 18.108 83.3654 18.2172 83.1851 18.2913C83.0048 18.3654 82.8112 18.4031 82.6163 18.4022C82.4141 18.4017 82.2147 18.3613 82.0283 18.2833C81.8418 18.2054 81.6721 18.0913 81.5298 17.9478L81.5271 17.9485ZM114.783 11.8575C114.777 10.5571 115.158 9.28438 115.876 8.20043C116.594 7.11647 117.618 6.2701 118.818 5.76854C120.018 5.26698 121.339 5.13279 122.615 5.38299C123.891 5.63318 125.064 6.25652 125.986 7.17399C126.907 8.09146 127.536 9.26178 127.792 10.5367C128.047 11.8117 127.919 13.1338 127.422 14.3358C126.926 15.5377 126.084 16.5652 125.004 17.2883C123.923 18.0113 122.651 18.3973 121.351 18.3973C120.484 18.4233 119.621 18.2722 118.815 17.9531C118.008 17.6341 117.275 17.1539 116.66 16.5419C116.046 15.9299 115.562 15.199 115.239 14.3937C114.917 13.5885 114.762 12.726 114.784 11.8589L114.783 11.8575ZM117.922 11.8575C117.943 12.5312 118.161 13.1841 118.55 13.7346C118.939 14.285 119.481 14.7087 120.11 14.9526C120.738 15.1966 121.424 15.25 122.083 15.1062C122.741 14.9624 123.343 14.6279 123.812 14.1442C124.282 13.6606 124.599 13.0494 124.723 12.3869C124.847 11.7244 124.774 11.0399 124.511 10.4191C124.249 9.79818 123.809 9.26836 123.248 8.89576C122.686 8.52316 122.027 8.32429 121.352 8.32399C120.89 8.3116 120.429 8.39541 120.001 8.57008C119.572 8.74475 119.185 9.00648 118.862 9.33874C118.54 9.671 118.29 10.0665 118.129 10.5003C117.967 10.9341 117.897 11.3967 117.924 11.8589L117.922 11.8575ZM109.207 16.8752V13.39H104.102V16.8773C104.097 17.284 103.932 17.6723 103.642 17.9574C103.352 18.2426 102.961 18.4014 102.554 18.3994C102.146 18.4008 101.753 18.2423 101.461 17.9577C101.168 17.6732 100.998 17.2854 100.988 16.8773H100.998V6.82083C100.998 6.41028 101.161 6.01655 101.451 5.72625C101.741 5.43595 102.135 5.27287 102.546 5.27287C102.956 5.27287 103.35 5.43595 103.64 5.72625C103.931 6.01655 104.094 6.41028 104.094 6.82083V10.3095H109.204V6.82012C109.209 6.41345 109.374 6.02518 109.664 5.74003C109.954 5.45489 110.346 5.29602 110.752 5.29808C111.161 5.29522 111.554 5.45321 111.848 5.73798C112.141 6.02275 112.311 6.41144 112.32 6.82012V16.8766C112.308 17.2817 112.138 17.6661 111.848 17.9483C111.557 18.2305 111.167 18.3884 110.762 18.3884C110.357 18.3884 109.968 18.2305 109.677 17.9483C109.386 17.6661 109.216 17.2817 109.204 16.8766L109.207 16.8752ZM85.3812 11.8575C85.3756 10.5573 85.7561 9.28475 86.4744 8.201C87.1927 7.11725 88.2168 6.27109 89.4164 5.76969C90.616 5.26829 91.9372 5.13421 93.2131 5.38446C94.4889 5.63471 95.6617 6.25802 96.5831 7.17542C97.5044 8.09282 98.133 9.26305 98.3887 10.5378C98.6444 11.8126 98.5158 13.1346 98.0195 14.3364C97.5233 15.5381 96.6812 16.5655 95.6006 17.2884C94.5199 18.0114 93.2491 18.3973 91.9489 18.3973C91.082 18.4231 90.2188 18.2718 89.4123 17.9527C88.6058 17.6336 87.8732 17.1534 87.2586 16.5414C86.644 15.9295 86.1604 15.1986 85.8379 14.3935C85.5154 13.5884 85.3605 12.7259 85.3825 11.8589L85.3812 11.8575ZM88.5228 11.8575C88.543 12.5314 88.7612 13.1844 89.1505 13.735C89.5397 14.2855 90.0828 14.7092 90.7114 14.953C91.34 15.1968 92.0266 15.25 92.6852 15.1059C93.3439 14.9618 93.945 14.6268 94.4143 14.1427C94.8837 13.6587 95.2006 13.0471 95.3244 12.3843C95.4481 11.7215 95.3734 11.037 95.1104 10.4162C94.8473 9.79535 94.4071 9.26583 93.8448 8.89373C93.2826 8.52163 92.6231 8.32346 91.9489 8.32399C91.4864 8.31188 91.0269 8.3959 90.5986 8.57072C90.1702 8.74554 89.7828 9.00735 89.4609 9.33961C89.1389 9.67188 88.8891 10.0673 88.7279 10.501C88.5667 10.9346 88.4975 11.397 88.5242 11.8589L88.5228 11.8575ZM63.8703 16.8668V8.48921H61.5122C61.1063 8.48921 60.7169 8.32797 60.4299 8.04095C60.1429 7.75393 59.9821 7.36465 59.9821 6.95875C59.9821 6.55284 60.1429 6.16358 60.4299 5.87656C60.7169 5.58955 61.1063 5.4283 61.5122 5.4283H69.3578C69.7637 5.4283 70.1531 5.58955 70.4401 5.87656C70.7271 6.16358 70.8879 6.55284 70.8879 6.95875C70.8879 7.36465 70.7271 7.75393 70.4401 8.04095C70.1531 8.32797 69.7637 8.48921 69.3578 8.48921H67.0181V16.8654C67.0181 17.2832 66.852 17.6839 66.5566 17.9793C66.2612 18.2747 65.8606 18.4407 65.4428 18.4407C65.0251 18.4407 64.6245 18.2747 64.3291 17.9793C64.0337 17.6839 63.8676 17.2832 63.8676 16.8654L63.8703 16.8668ZM47.8913 16.8843C47.888 16.5041 48.0331 16.1376 48.2961 15.8629C48.5591 15.5883 48.919 15.4272 49.2991 15.4141C49.9062 15.3913 50.4971 15.2113 51.0138 14.8918L46.6648 7.54966C46.5587 7.37508 46.4893 7.18082 46.4603 6.97862C46.4313 6.77641 46.4432 6.57042 46.4959 6.37306C46.5486 6.17571 46.6407 5.99107 46.7666 5.83026C46.8926 5.66946 47.0498 5.53581 47.2288 5.43739C47.5868 5.26824 47.9948 5.23768 48.374 5.35158C48.7532 5.46548 49.0771 5.71579 49.2827 6.0542L52.918 12.2852L56.2155 6.1081C56.4054 5.75527 56.7214 5.48688 57.1002 5.35637C57.479 5.22585 57.8936 5.2428 58.2605 5.4038C58.4426 5.49685 58.6042 5.62555 58.7357 5.78227C58.8671 5.939 58.9656 6.12056 59.0255 6.31614C59.0855 6.51173 59.1054 6.71736 59.0843 6.92084C59.0633 7.12432 59.0019 7.32149 58.9032 7.50065L56.3468 12.3021C55.6684 13.7008 54.8304 15.0164 53.8499 16.2227C53.3087 16.8719 52.6358 17.3983 51.8753 17.767C51.1148 18.1357 50.2841 18.3381 49.4393 18.3609C49.2394 18.3713 49.0396 18.3408 48.8519 18.2712C48.6643 18.2017 48.4928 18.0946 48.3481 17.9565C48.2033 17.8184 48.0886 17.6522 48.0103 17.4681C47.932 17.284 47.8918 17.0858 47.8927 16.8857L47.8913 16.8843ZM136.279 18.2846C135.425 18.3045 134.577 18.1537 133.782 17.8409C132.988 17.5281 132.265 17.0597 131.654 16.4633C131.043 15.8668 130.558 15.1543 130.227 14.3676C129.896 13.5809 129.725 12.7359 129.725 11.8823C129.725 11.0287 129.896 10.1838 130.227 9.39709C130.558 8.6104 131.043 7.89789 131.654 7.30141C132.265 6.70493 132.988 6.23653 133.782 5.92376C134.577 5.61098 135.425 5.46014 136.279 5.4801H138.618C139.023 5.47748 139.412 5.63518 139.701 5.9187C139.989 6.20222 140.154 6.58849 140.159 6.99306C140.159 7.19404 140.119 7.393 140.041 7.57832C139.963 7.76363 139.849 7.93161 139.705 8.07244C139.562 8.21328 139.392 8.32415 139.206 8.3986C139.019 8.47304 138.819 8.50956 138.618 8.50602H136.183C135.288 8.50602 134.429 8.8616 133.796 9.49452C133.163 10.1274 132.808 10.9859 132.808 11.8809C132.808 12.776 133.163 13.6344 133.796 14.2674C134.429 14.9003 135.288 15.2559 136.183 15.2559H138.618C138.82 15.2515 139.02 15.2875 139.208 15.3616C139.395 15.4358 139.566 15.5466 139.71 15.6876C139.854 15.8286 139.969 15.997 140.047 16.1828C140.125 16.3687 140.165 16.5683 140.165 16.7699C140.165 16.9715 140.125 17.1711 140.047 17.3569C139.969 17.5427 139.854 17.7111 139.71 17.8521C139.566 17.9931 139.395 18.104 139.208 18.1781C139.02 18.2523 138.82 18.2882 138.618 18.2839L136.279 18.2846ZM142.418 14.6307C142.427 14.2198 142.596 13.8287 142.89 13.5412C143.184 13.2538 143.579 13.0928 143.989 13.0928C144.4 13.0928 144.795 13.2538 145.088 13.5412C145.382 13.8287 145.551 14.2198 145.56 14.6307C145.564 14.8397 145.527 15.0475 145.45 15.242C145.373 15.4364 145.258 15.6135 145.112 15.7629C144.966 15.9124 144.791 16.0311 144.598 16.1121C144.405 16.1931 144.199 16.2349 143.989 16.2349C143.78 16.2349 143.573 16.1931 143.38 16.1121C143.187 16.0311 143.013 15.9124 142.867 15.7629C142.72 15.6135 142.605 15.4364 142.528 15.242C142.451 15.0475 142.414 14.8397 142.418 14.6307ZM142.418 9.04652C142.419 8.73615 142.512 8.43292 142.685 8.17513C142.858 7.91734 143.103 7.71651 143.39 7.59799C143.677 7.47948 143.992 7.44858 144.296 7.5092C144.601 7.56981 144.88 7.71924 145.1 7.93861C145.319 8.15798 145.47 8.43746 145.531 8.7418C145.591 9.04613 145.561 9.3617 145.442 9.64865C145.324 9.93561 145.124 10.1811 144.866 10.3542C144.608 10.5272 144.305 10.6201 143.994 10.6211C143.577 10.6209 143.178 10.4553 142.883 10.1607C142.587 9.86604 142.421 9.46637 142.42 9.04932L142.418 9.04652Z" fill="white"/>
</svg>
