<svg width="145" height="18" viewBox="0 0 145 18" fill="none" xmlns="http://www.w3.org/2000/svg">
<path fill-rule="evenodd" clip-rule="evenodd" d="M4.68598 16.9117L0.271177 0.791742H3.16981L6.56131 13.1713L10.1985 0.791742H12.8991L16.5479 13.2376L19.9546 0.796025H22.8532L18.4377 16.9088H15.0773L11.5506 4.87339L8.02038 16.9088H4.68814L4.68598 16.9117ZM24.8521 0.801004H27.6091V16.9024H24.8528V0.801004H24.8521ZM33.5068 14.3761H40.2197V16.9024H30.8062V0.801004H33.5076V14.3761H33.5068ZM48.7017 0.821659C49.7533 0.794464 50.7988 0.987346 51.7694 1.38757C52.7399 1.78779 53.6133 2.38626 54.332 3.14354C55.7879 4.70253 56.5959 6.74411 56.5959 8.86312C56.5959 10.9822 55.7879 13.0237 54.332 14.5827C53.6132 15.3398 52.7398 15.9382 51.7692 16.3383C50.7988 16.7384 49.7533 16.9311 48.7017 16.9039H42.2179V0.802438H48.7017V0.820963V0.821659ZM48.7017 14.3967C49.41 14.4241 50.1158 14.2987 50.7699 14.0293C51.4239 13.7599 52.0105 13.3531 52.4885 12.8372C53.4884 11.7599 54.0206 10.3396 53.9714 8.88022C54.0274 7.42105 53.4942 5.99955 52.4885 4.92752C52.0082 4.41425 51.4213 4.00912 50.7678 3.73974C50.1144 3.47035 49.4096 3.34307 48.7017 3.36656H44.9373V14.3967H48.7017ZM71.1443 12.305C71.1605 12.9236 71.0395 13.5382 70.7899 14.106C70.5403 14.6737 70.1679 15.181 69.6989 15.5922C68.7465 16.4683 67.4839 16.9417 66.1817 16.911H59.1226V0.801721H65.6671C66.9328 0.779839 68.1583 1.23905 69.0897 2.08413C69.5454 2.48014 69.9078 2.96966 70.1513 3.51832C70.3949 4.06698 70.5137 4.66151 70.4996 5.26024C70.5206 5.90277 70.3785 6.54027 70.0862 7.11493C69.7939 7.68957 69.3607 8.18323 68.8259 8.55106C69.5332 8.89575 70.1266 9.43151 70.5369 10.0959C70.9472 10.7602 71.1576 11.5258 71.1435 12.3035L71.1443 12.305ZM61.8471 3.29317V7.52799H65.6896C66.2592 7.52799 66.8055 7.3049 67.2082 6.90781C67.6111 6.51072 67.8373 5.97214 67.8373 5.41057C67.8373 4.849 67.6111 4.31042 67.2082 3.91333C66.8055 3.51624 66.2592 3.29317 65.6896 3.29317H61.8471ZM66.2027 14.4224C66.8002 14.4119 67.3698 14.1705 67.7885 13.7502C68.2074 13.3298 68.4421 12.7641 68.4421 12.175C68.4421 11.5858 68.2074 11.0201 67.7885 10.5997C67.3698 10.1794 66.8002 9.93799 66.2027 9.92752H61.8471V14.4409H66.2027V14.4231V14.4224ZM76.4147 14.3853H83.7188V16.911H73.7112V0.801721H83.6046V3.32879H76.414V7.51088H83.0149V10.0187H76.414V14.3839L76.4147 14.3853ZM95.5482 16.911L92.0497 11.0418H88.8526V16.911H86.1527V0.801721H92.7529C94.152 0.800727 95.4947 1.34483 96.4891 2.31551C97.4827 3.28618 98.0479 4.60478 98.0602 5.98409C98.0522 6.99571 97.7364 7.98167 97.1525 8.81367C96.5686 9.64575 95.7447 10.2853 94.7872 10.6492L98.5335 16.9081L95.5482 16.911ZM88.8526 3.29317V8.68216H92.7348C93.4329 8.6434 94.0898 8.3426 94.5704 7.84153C95.0502 7.34046 95.3183 6.67713 95.3183 5.98765C95.3183 5.29818 95.0502 4.63486 94.5704 4.1338C94.0898 3.63274 93.4329 3.33197 92.7348 3.29317H88.8526ZM109.984 16.911L106.503 11.0382H103.307V16.911H100.607V0.792459H107.206C108.606 0.792225 109.95 1.33744 110.944 2.30933C111.938 3.28123 112.502 4.60105 112.514 5.98124C112.506 6.9926 112.19 7.97825 111.606 8.81018C111.023 9.64211 110.199 10.2819 109.242 10.6464L112.988 16.9088L109.984 16.911ZM103.307 3.28676V8.67646H107.188C107.888 8.63927 108.546 8.33911 109.028 7.83783C109.509 7.33652 109.778 6.6722 109.778 5.98161C109.778 5.29102 109.509 4.62671 109.028 4.1254C108.546 3.6241 107.888 3.32396 107.188 3.28676H103.307ZM114.966 0.797438H117.667V16.9088H114.966V0.795307V0.797438ZM123.566 14.3846H130.867V16.9103H120.863V0.801721H130.752V3.32879H123.563V7.51088H130.164V10.0187H123.563V14.3839L123.566 14.3846ZM132.754 13.2447L135.093 11.9081C135.756 13.7285 137.11 14.6197 139.182 14.6197C141.236 14.6197 142.244 13.7648 142.244 12.5023C142.256 12.2048 142.186 11.9095 142.042 11.6478C141.898 11.3861 141.685 11.1679 141.425 11.0161C140.506 10.5038 139.522 10.1165 138.498 9.86483C137.269 9.56652 136.099 9.07066 135.035 8.39717C134.509 8.0356 134.086 7.54717 133.806 6.97856C133.526 6.40995 133.399 5.7801 133.436 5.1491C133.408 4.50439 133.535 3.86234 133.806 3.27506C134.077 2.68779 134.485 2.17187 134.997 1.76923C136.048 0.913639 137.38 0.464632 138.743 0.506047C139.949 0.472156 141.139 0.791 142.16 1.4224C143.183 2.0538 143.993 2.9695 144.489 4.05407L142.207 5.33647C141.939 4.65272 141.461 4.06853 140.84 3.66553C140.219 3.26253 139.486 3.06086 138.743 3.08869C137.167 3.08869 136.159 3.87239 136.159 5.09496C136.159 6.28048 136.954 6.8376 139.487 7.59921C140.112 7.8037 140.571 7.95545 140.857 8.06375C141.162 8.15637 141.56 8.32379 142.072 8.52826C142.504 8.68322 142.908 8.90237 143.272 9.17802C143.814 9.54365 144.253 10.0386 144.55 10.6167C144.845 11.1948 144.988 11.8374 144.964 12.4845C144.991 13.1479 144.858 13.8082 144.577 14.4117C144.297 15.0151 143.875 15.5449 143.348 15.9577C142.134 16.8518 140.641 17.2978 139.127 17.218C135.927 17.1995 133.605 15.7119 132.753 13.2433L132.754 13.2447Z" fill="white"/>
</svg>
