<svg width="143" height="20" viewBox="0 0 143 20" fill="none" xmlns="http://www.w3.org/2000/svg">
<path d="M6.91805 16.8492H9.32594V3.0188H5.82356C2.30128 3.0188 0.450585 4.82969 0.450585 7.49628C0.450585 9.62557 1.46548 10.8793 3.27637 12.1728L0.132187 16.8492H2.73907L6.24146 11.6156L5.02756 10.7997C3.55497 9.80466 2.83857 9.02857 2.83857 7.35698C2.83857 5.88438 3.87337 4.88939 5.84346 4.88939H6.91805V16.8492ZM38.539 16.1726V14.2423C37.8027 14.7398 36.5689 15.1776 35.4147 15.1776C33.6834 15.1776 33.0267 14.3617 32.9272 12.6901H38.6385V11.4365C38.6385 7.95397 37.1062 6.64058 34.7381 6.64058C31.8526 6.64058 30.4795 8.84947 30.4795 11.8743C30.4795 15.3567 32.1909 17.0482 35.2157 17.0482C36.7281 17.0482 37.8425 16.6502 38.539 16.1726ZM53.3445 17.0482C54.439 17.0482 55.2151 16.8492 55.7922 16.4313V14.501C55.1952 14.9189 54.4788 15.1776 53.4838 15.1776C51.7923 15.1776 51.0958 13.8642 51.0958 11.7947C51.0958 9.62557 51.9515 8.51117 53.5037 8.51117C54.4191 8.51117 55.3146 8.82957 55.7922 9.12807V7.11818C55.2947 6.83958 54.4191 6.64058 53.245 6.64058C50.2202 6.64058 48.6481 8.80967 48.6481 11.8544C48.6481 15.1975 50.1804 17.0482 53.3445 17.0482ZM16.8481 6.83958V10.7997H13.684V6.83958H11.3159V16.8492H13.684V12.6702H16.8481V16.8492H19.2162V6.83958H16.8481ZM29.9024 14.9786H28.8477V6.83958H21.9425V7.69527C21.9425 10.143 21.7833 13.307 20.9475 14.9786H20.2112V19.1377H22.4002V16.8492H27.7134V19.1377H29.9024V14.9786ZM46.101 16.8492H48.7874L44.9866 11.4564L48.3297 6.83958H45.9418L42.5986 11.4564V6.83958H40.2305V16.8492H42.5986V11.934L46.101 16.8492ZM34.6983 8.51117C35.8724 8.51117 36.2306 9.48627 36.2306 10.74V10.939H32.9272C32.9869 9.34697 33.564 8.51117 34.6983 8.51117ZM26.4797 14.9786H23.1365C23.7932 13.4662 23.9723 10.74 23.9723 9.00867V8.71017H26.4797V14.9786Z" fill="black"/>
<path d="M88.6209 16.8492H90.6905L93.5163 6.40178V16.8492H95.8844V3.0188H92.6606L89.8746 13.2672L87.0886 3.0188H83.825V16.8492H85.7951V6.40178L88.6209 16.8492ZM105.358 10.0236C105.358 7.59578 104.124 6.68038 101.617 6.68038C100.045 6.68038 98.8107 7.17788 98.0943 7.59578V9.56587C98.7311 9.08827 100.124 8.57087 101.338 8.57087C102.472 8.57087 102.99 8.96887 102.99 10.0435V10.6007H102.612C98.9898 10.6007 97.3779 11.7947 97.3779 13.8244C97.3779 15.8542 98.6117 16.9885 100.443 16.9885C101.836 16.9885 102.433 16.5308 102.89 16.0532H102.99C103.01 16.3119 103.089 16.6502 103.169 16.8492H105.477C105.398 16.0333 105.358 15.2174 105.358 14.4015V10.0236ZM102.99 14.4612C102.691 14.899 102.134 15.2572 101.298 15.2572C100.303 15.2572 99.8057 14.6602 99.8057 13.7647C99.8057 12.5907 100.622 12.1728 102.651 12.1728H102.99V14.4612ZM109.451 6.83958H107.262V19.7347H109.63V15.6751C110.227 16.5706 111.103 17.0482 112.117 17.0482C114.426 17.0482 116.018 15.1975 116.018 11.8345C116.018 8.49127 114.466 6.64058 112.237 6.64058C111.122 6.64058 110.207 7.15798 109.57 8.13307L109.451 6.83958ZM111.52 15.1776C110.267 15.1776 109.63 14.1627 109.63 11.8544C109.63 9.52607 110.307 8.51117 111.64 8.51117C112.933 8.51117 113.57 9.52607 113.57 11.8345C113.57 14.1627 112.894 15.1776 111.52 15.1776ZM123.471 16.8492H126.157L122.357 11.4564L125.7 6.83958H123.312L119.969 11.4564V6.83958H117.601V16.8492H119.969V11.934L123.471 16.8492ZM134.124 16.1726V14.2423C133.387 14.7398 132.153 15.1776 130.999 15.1776C129.268 15.1776 128.611 14.3617 128.512 12.6902H134.223V11.4365C134.223 7.95397 132.691 6.64058 130.323 6.64058C127.437 6.64058 126.064 8.84947 126.064 11.8743C126.064 15.3567 127.775 17.0482 130.8 17.0482C132.313 17.0482 133.427 16.6502 134.124 16.1726ZM130.283 8.51117C131.457 8.51117 131.815 9.48627 131.815 10.74V10.939H128.512C128.571 9.34697 129.149 8.51117 130.283 8.51117ZM142.647 8.71017V6.83958H134.707V8.71017H137.493V16.8492H139.861V8.71017H142.647Z" fill="black"/>
<mask id="mask0_2_206" style="mask-type:alpha" maskUnits="userSpaceOnUse" x="60" y="0" width="19" height="20">
<path d="M69.6655 19.1455C74.738 19.1455 78.8501 15.0334 78.8501 9.96094C78.8501 4.88844 74.738 0.776367 69.6655 0.776367C64.593 0.776367 60.4809 4.88844 60.4809 9.96094C60.4809 15.0334 64.593 19.1455 69.6655 19.1455Z" fill="white"/>
</mask>
<g mask="url(#mask0_2_206)">
<path d="M60.4809 0.776367H78.8501V19.1455H60.4809V0.776367Z" fill="url(#paint0_linear_2_206)"/>
<path d="M60.4809 16.6859L64.8656 11.4522L63.792 15.5507L67.1192 16.7561L72.0628 9.70897L70.9798 13.7388L73.6752 15.2987L78.8501 10.1195V5.85757L75.1801 9.53446L75.9944 4.90635L72.6013 3.66797L67.7219 10.6303L68.2076 7.47069L65.549 5.93732L60.4809 11.9805V16.6859Z" fill="black"/>
</g>
<defs>
<linearGradient id="paint0_linear_2_206" x1="69.6655" y1="-3.59472" x2="69.6655" y2="20.8892" gradientUnits="userSpaceOnUse">
<stop stop-color="#FFE55B"/>
<stop offset="1" stop-color="#FFCC00"/>
</linearGradient>
</defs>
</svg>
